<?xml version="1.0" encoding="UTF-8" standalone="no"?>
<svg
   xmlns:dc="http://purl.org/dc/elements/1.1/"
   xmlns:cc="http://creativecommons.org/ns#"
   xmlns:rdf="http://www.w3.org/1999/02/22-rdf-syntax-ns#"
   xmlns:svg="http://www.w3.org/2000/svg"
   xmlns="http://www.w3.org/2000/svg"
   xmlns:sodipodi="http://sodipodi.sourceforge.net/DTD/sodipodi-0.dtd"
   xmlns:inkscape="http://www.inkscape.org/namespaces/inkscape"
   width="250px"
   height="105px"
   viewBox="0 0 250 105"
   version="1.1"
   id="svg2"
   inkscape:version="0.92.2 5c3e80d, 2017-08-06"
   sodipodi:docname="clarity-curated-logo.svg">
  <metadata
     id="metadata97">
    <rdf:RDF>
      <cc:Work
         rdf:about="">
        <dc:format>image/svg+xml</dc:format>
        <dc:type
           rdf:resource="http://purl.org/dc/dcmitype/StillImage" />
        <dc:title>Group</dc:title>
      </cc:Work>
    </rdf:RDF>
  </metadata>
  <sodipodi:namedview
     pagecolor="#ffffff"
     bordercolor="#666666"
     borderopacity="1"
     objecttolerance="10"
     gridtolerance="10"
     guidetolerance="10"
     inkscape:pageopacity="0"
     inkscape:pageshadow="2"
     inkscape:window-width="1440"
     inkscape:window-height="801"
     id="namedview95"
     showgrid="false"
     inkscape:zoom="2.464"
     inkscape:cx="123.16057"
     inkscape:cy="80.678328"
     inkscape:window-x="52"
     inkscape:window-y="0"
     inkscape:window-maximized="0"
     inkscape:current-layer="Group" />
  <!-- Generator: Sketch 47 (45396) - http://www.bohemiancoding.com/sketch -->
  <title
     id="title4">Group</title>
  <desc
     id="desc6">Created with Sketch.</desc>
  <defs
     id="defs8" />
  <g
     style="fill:none;fill-rule:evenodd;stroke:none;stroke-width:1"
     id="Group">
    <g
       style="fill-rule:nonzero"
       id="clarity-marketplace-logo">
      <path
         style="opacity:0.7;fill:#666363"
         inkscape:connector-curvature="0"
         id="Shape"
         d="m 48.1,0 9.8,0 0,57.4 c 0,2.3 1.2,3.4 3.7,3.4 l 3.4,0 0,9.4 -4.4,0 c -3.6,0 -6.5,-0.9 -8.8,-2.7 -2.4,-1.9 -3.7,-5 -3.7,-9.4 l 0,-58.1 0,0 z" />
      <path
         style="opacity:0.7;fill:#666363"
         inkscape:connector-curvature="0"
         id="path14"
         d="m 99.2,65.9 -0.2,0 c -0.9,1.7 -2.3,3 -4.2,3.8 C 92.9,70.5 90.3,71 87,71 81.6,70.9 77.4,69.5 74.4,66.6 71.3,63.8 69.8,60.2 69.8,55.8 c 0,-4.2 1.3,-7.7 4,-10.5 2.7,-2.8 6.6,-4.3 11.8,-4.3 l 13.5,0 0,-5.3 c 0.1,-4.4 -3.3,-6.6 -10,-6.4 -2.4,0 -4.4,0.3 -5.8,0.8 -1.5,0.6 -2.6,1.6 -3.5,3.1 l -7.7,-6 c 3.7,-5 9.2,-7.4 16.4,-7.3 6.1,-0.1 11,1.1 14.7,3.6 3.7,2.5 5.5,6.8 5.6,12.9 l 0,34.2 -9.8,0 0,-4.7 0.2,0 z m 0,-16.8 -11.8,0 c -5.7,0.1 -8.5,2.1 -8.5,6 0,1.7 0.7,3.2 2.2,4.3 1.4,1.3 3.7,2 7,2 4.1,0.1 7,-0.4 8.7,-1.5 1.5,-1.1 2.3,-3.5 2.3,-7.2 l 0,-3.6 0.1,0 z" />
      <path
         style="opacity:0.7;fill:#666363"
         inkscape:connector-curvature="0"
         id="path16"
         d="m 123.2,20.2 9.8,0 0,5.3 0.2,0 c 3.2,-4 7.4,-5.9 12.7,-5.9 3.9,0.1 7.3,1.3 10.2,3.8 l -7.1,8.7 c -2.1,-1.7 -4.2,-2.5 -6.4,-2.5 -2.5,0 -4.6,0.8 -6.4,2.5 -2,1.6 -3,4.3 -3.1,8 l 0,30.2 -9.8,0 0,-50.1 -0.1,0 z" />
      <path
         style="opacity:0.7;fill:#666363"
         inkscape:connector-curvature="0"
         id="path18"
         d="m 162.1,0 9.8,0 0,10 -9.8,0 0,-10 z m 0,20.2 9.8,0 0,50 -9.8,0 0,-50 z" />
      <path
         style="opacity:0.7;fill:#666363"
         inkscape:connector-curvature="0"
         id="path20"
         d="m 186.1,5 9.8,0 0,15.2 7.1,0 0,7.8 -7.1,0 0,29.2 c -0.1,2.5 1.1,3.8 3.5,3.7 l 3.7,0 0,9.4 -5.1,0 c -3.4,0 -6.2,-1.1 -8.4,-3.3 -2.2,-2.1 -3.4,-5.1 -3.4,-9.1 l 0,-29.9 -4.9,0 0,-7.7 4.9,0 0,-15.3 -0.1,0 z" />
      <path
         style="opacity:0.7;fill:#666363"
         inkscape:connector-curvature="0"
         id="path22"
         d="m 206.1,20.2 10.4,0 11.5,35.1 0.2,0 11.5,-35.1 10.3,0 -20.9,60.4 c -1.3,3.8 -3.2,6.4 -5.6,7.8 -2.4,1.4 -5.1,2.1 -8.2,2.1 l -3.2,0 0,-9.4 2.9,0 c 1.3,0 2.5,-0.4 3.6,-1.1 1.1,-0.7 1.9,-1.8 2.3,-3.3 l 2.7,-8.4 -17.5,-48.1 z" />
      <g
         style="fill:#4260f4"
         transform="translate(0,19)"
         id="g24">
        <path
           style="opacity:0.8"
           d="m 39.6,9.4 -7.7,-2 0.5,8.6 z"
           id="polygon26" />
        <path
           style="opacity:0.7"
           inkscape:connector-curvature="0"
           id="path28"
           d="M 31.9,7.4 26.4,1.1 c 2,0.4 3.9,1 5.6,2 2.9,1.6 5.4,3.7 7.5,6.3 l -7.6,-2 z" />
        <path
           style="opacity:0.8"
           inkscape:connector-curvature="0"
           id="path30"
           d="M 26.5,1.1 32.4,16 c -2.5,-3.4 -5.8,-5.1 -9.9,-5.3 l 4,-9.6 z" />
        <path
           style="opacity:0.8"
           inkscape:connector-curvature="0"
           id="path32"
           d="M 16.9,5.5 17.8,1 c 1.4,-0.3 2.8,-0.4 4.3,-0.4 1.5,0 3,0.2 4.4,0.4 l -9.6,4.5 z" />
        <path
           style="opacity:0.7"
           d="M 22.5,10.7 16.9,5.5 26.5,1.1 Z"
           id="polygon34" />
        <path
           style="opacity:0.8"
           inkscape:connector-curvature="0"
           id="path36"
           d="M 6.9,6.6 C 10.1,3.6 13.7,1.8 17.7,1 L 16.8,5.5 6.9,6.6 Z" />
        <path
           style="opacity:0.9"
           d="M 22.4,10.7 6.9,6.6 16.8,5.5 Z"
           id="polygon38" />
        <path
           style="opacity:0.7"
           d="M 12.5,15.1 4.5,21 6.9,6.6 Z"
           id="polygon40" />
        <path
           style="opacity:0.9"
           inkscape:connector-curvature="0"
           id="path42"
           d="M 0.8,18.4 C 1.8,13.3 3.9,9.3 7,6.6 L 4.5,21 0.8,18.4 Z" />
        <path
           style="opacity:0.7"
           inkscape:connector-curvature="0"
           id="path44"
           d="m 7.8,22.3 4.7,-7.2 c -1.8,2.6 -2.7,6.4 -2.8,11.3 0,2.6 0.3,4.9 0.9,6.9 l -2.8,-11 z" />
        <path
           style="opacity:0.8"
           d="M 7.8,22.3 4.5,21 l 8,-5.9 z"
           id="polygon46" />
        <path
           style="opacity:0.9"
           d="M 7.8,22.3 2.7,28.5 4.5,21 Z"
           id="polygon48" />
        <path
           style="opacity:0.85"
           inkscape:connector-curvature="0"
           id="path50"
           d="M 1.1,35.5 C 0.4,32.8 0.1,29.8 0,26.4 0,23.5 0.3,20.8 0.8,18.4 L 4.5,21 1.1,35.5 Z" />
        <path
           style="opacity:0.85"
           d="m 10.6,44.6 -9.5,-9.1 1.7,-7 z"
           id="polygon52" />
        <path
           style="opacity:0.95"
           d="m 10.5,44.5 -7.8,-16 7.9,4.7 z"
           id="polygon54" />
        <path
           style="opacity:0.8"
           inkscape:connector-curvature="0"
           id="path56"
           d="M 6.9,45.9 C 4.1,43.4 2.1,39.9 1,35.5 l 9.5,9.1 -3.6,1.3 z" />
        <path
           style="opacity:0.75"
           inkscape:connector-curvature="0"
           id="path58"
           d="m 10.5,44.6 0.1,-11.3 c 0,0 4,14.3 4,14.3 l -4.1,-3 z" />
        <path
           style="opacity:0.9"
           d="M 14.6,47.6 6.9,45.9 10.5,44.6 Z"
           id="polygon60" />
        <path
           style="opacity:0.7"
           inkscape:connector-curvature="0"
           id="path62"
           d="m 14.7,47.6 c 0,0 -4.5,-16 -3.9,-13.9 1.4,4.6 4.2,7.3 8.6,8 l -4.7,5.9 z" />
        <path
           style="opacity:0.95"
           inkscape:connector-curvature="0"
           id="path64"
           d="M 22.1,52 C 16.4,52 11.3,50 7,46 l 7.7,1.7 7.4,4.3 z" />
        <path
           style="opacity:0.8"
           d="M 19.3,41.7 22.1,52 14.7,47.6 Z"
           id="polygon66" />
        <path
           style="opacity:0.75"
           d="M 23.4,45.4 22.1,52 19.3,41.7 Z"
           id="polygon68" />
        <path
           style="opacity:0.8"
           inkscape:connector-curvature="0"
           id="path70"
           d="m 23.4,45.4 -4.1,-3.7 c 1,0.2 2,0.2 3.1,0.2 2.6,0 4.8,-0.7 6.8,-2.1 l -5.8,5.6 z" />
        <path
           style="opacity:0.95"
           inkscape:connector-curvature="0"
           id="path72"
           d="M 27.8,51.2 C 26,51.7 24.1,52 22.1,52 l 1.4,-6.5 4.3,5.7 z" />
        <path
           style="opacity:0.7"
           d="m 29.2,39.9 5.1,8.2 -10.9,-2.6 z"
           id="polygon74" />
        <path
           style="opacity:0.7"
           d="m 32.3,36.7 7.3,6.6 -5.2,-1.1 z"
           id="polygon76" />
        <path
           style="opacity:0.85"
           d="m 34.4,42.2 5.2,1.1 -7.4,1.4 z"
           id="polygon78" />
        <path
           style="opacity:0.75"
           d="m 34.4,42.2 -2.2,2.5 0.1,-8 z"
           id="polygon80" />
        <path
           style="opacity:0.7"
           inkscape:connector-curvature="0"
           id="path82"
           d="M 39.6,43.3 C 38,45.1 36.3,46.7 34.3,48 l -2.1,-3.4 7.4,-1.3 z" />
        <path
           style="opacity:0.7"
           inkscape:connector-curvature="0"
           id="path84"
           d="m 32.2,44.7 -3,-4.8 c 1.2,-0.8 2.2,-1.9 3.1,-3.1 l -0.1,7.9 z" />
        <path
           style="opacity:0.9"
           inkscape:connector-curvature="0"
           id="path86"
           d="m 34.3,48.1 c -0.7,0.5 -1.5,0.9 -2.2,1.4 -1.3,0.8 -2.8,1.3 -4.3,1.8 l -4.4,-5.7 10.9,2.5 z" />
        <path
           style="opacity:0.95"
           d="M 10.6,33.3 7.8,22.3 2.7,28.5 Z"
           id="polygon88" />
        <path
           style="opacity:0.9"
           d="M 31.9,7.4 26.5,1.1 32.4,16 Z"
           id="polygon90" />
        <path
           style="opacity:0.85"
           inkscape:connector-curvature="0"
           id="path92"
           d="m 6.9,6.6 15.5,4.1 c -4.5,-0.1 -7.8,1.4 -9.9,4.4 L 6.9,6.6 Z" />
      </g>
    </g>
    <g
       aria-label="case studies"
       transform="matrix(0.80287432,-0.05367622,0.05367622,0.80287432,8.7504283,16.070107)"
       style="font-style:normal;font-weight:normal;line-height:0%;font-family:sans-serif;text-align:center;letter-spacing:0px;word-spacing:0px;text-anchor:middle;fill:#000000;fill-opacity:1;stroke:none;stroke-width:1px;stroke-linecap:butt;stroke-linejoin:miter;stroke-opacity:1"
       id="text3469">
      <path
         d="m 48.273134,97.430894 q 0,0.607158 -0.438503,1.096258 -0.15179,0.168655 -0.472234,0.455369 -0.320445,0.269848 -0.573428,0.52283 l -1.551626,1.551629 q -0.438504,0.4385 -0.82641,0.79268 -0.371041,0.33731 -0.657755,0.59029 -0.4891,0.40477 -1.180585,0.9782 -0.674621,0.55656 -1.568493,1.29864 -1.754012,1.45044 -3.238177,2.37804 -1.484164,0.91074 -3.187581,1.4673 -1.68655,0.53969 -3.575487,0.53969 -1.16372,0.0337 -2.091323,-0.40477 -0.910737,-0.4385 -1.551627,-1.18058 -0.624023,-0.75895 -0.961333,-1.77088 -0.320445,-1.01193 -0.30358,-2.14192 0,-2.24311 0.944469,-4.486225 0.961334,-2.243113 2.546691,-4.418763 0.860141,-1.146854 2.074458,-2.192516 1.197451,-1.045661 2.17565,-1.045661 0.522831,0 1.197451,0.877006 0.33731,0.438503 0.640889,0.944468 0.303579,0.4891 0.556562,1.045662 0.505965,1.096258 0.505965,1.585358 0,0.489099 -0.303579,1.264913 -0.303579,0.775813 -0.725217,0.775813 -0.607158,0 -1.01193,-0.82641 -0.202386,-0.421638 -0.303579,-0.708351 -0.08433,-0.303579 -0.202386,-0.64089 -0.387907,-1.01193 -0.657755,-1.450433 -1.113123,0.202386 -1.855206,1.096258 -0.354175,0.438503 -0.742082,1.062527 -0.371041,0.607158 -0.792679,1.382971 -0.33731,0.607159 -0.624024,1.366106 -0.286713,0.758948 -0.489099,1.568497 -0.202386,0.79267 -0.320445,1.60222 -0.118059,0.79268 -0.118059,1.48416 0,0.9782 0.843276,1.90581 0.860141,0.89387 1.855206,0.89387 2.158784,0 4.098318,-0.75895 1.939533,-0.75895 3.727277,-2.02386 1.770878,-1.23118 3.592353,-2.884 0.910737,-0.82641 1.720281,-1.55163 0.82641,-0.742082 1.568492,-1.416702 1.231182,-1.079393 2.040727,-1.079393 0.236117,0 0.236117,0.455369 z"
         style="font-style:normal;font-variant:normal;font-weight:normal;font-stretch:normal;font-size:34.54055786px;line-height:1.25;font-family:'Segoe Script';-inkscape-font-specification:'Segoe Script';fill:#5570f5;fill-opacity:1"
         id="path3856"
         inkscape:connector-curvature="0" />
      <path
         d="m 70.350082,97.548953 q 0,0.202386 -0.0506,0.489099 -0.0506,0.269848 -0.15179,0.556562 -0.08433,0.286714 -0.202386,0.556562 -0.101193,0.252982 -0.219251,0.404772 -0.101193,0.134924 -0.303579,0.371041 -0.185521,0.219251 -0.421638,0.489101 -0.236117,0.26985 -0.522831,0.57343 -0.269848,0.28671 -0.573427,0.55656 -1.045661,0.96133 -2.057592,1.87207 -0.995065,0.89387 -2.057592,1.58536 -1.062527,0.69148 -2.226247,1.11312 -1.146854,0.40477 -2.496095,0.38791 -0.624023,0 -1.264913,-0.21925 -0.624023,-0.23612 -1.180585,-0.65776 -0.556562,-0.42164 -0.961334,-1.01193 -0.404772,-0.59029 -0.573427,-1.29864 -0.4891,0.50596 -1.028796,1.06252 -0.539696,0.5397 -1.129989,1.09626 -0.573427,0.55656 -1.197451,1.07939 -0.624024,0.52283 -1.281779,0.96134 -0.371041,0.23611 -0.893871,0.50596 -0.505966,0.26985 -1.079393,0.50597 -0.556562,0.21925 -1.129989,0.37104 -0.556562,0.13492 -1.01193,0.13492 -0.691486,0 -1.197451,-0.42163 -0.4891,-0.43851 -0.82641,-1.06253 -0.320445,-0.62403 -0.4891,-1.33238 -0.151789,-0.70835 -0.151789,-1.26491 0,-1.11312 0.320444,-2.27684 0.320445,-1.16372 0.82641,-2.25998 0.522831,-1.113125 1.146855,-2.10819 0.640889,-0.995064 1.248047,-1.770878 0.640889,-0.809544 1.517896,-1.602223 0.877006,-0.809544 1.821474,-1.433568 0.944469,-0.640889 1.855206,-1.028796 0.910738,-0.387907 1.619089,-0.387907 0.354176,0 0.742082,0 0.404772,0 0.792679,0.0506 0.387907,0.03373 0.758948,0.134924 0.371041,0.08433 0.67462,0.269848 0.15179,0.101193 0.354176,0.387907 0.202386,0.286713 0.371041,0.640889 0.18552,0.354176 0.303579,0.708351 0.118059,0.354176 0.118059,0.556562 0,0.556562 -0.252983,1.484165 -0.269848,1.16372 -0.505965,2.125054 -0.219252,0.944468 -0.219252,1.956392 0,0.57343 0.185521,1.18059 0.18552,0.59029 0.52283,1.07939 0.354176,0.4891 0.843276,0.80955 0.505965,0.30357 1.129989,0.30357 1.028796,0 2.108188,-0.42163 1.079392,-0.43851 2.17565,-1.18059 1.113124,-0.75895 2.209382,-1.73715 1.096258,-0.995058 2.158785,-2.108181 0.08433,-0.101193 0.286713,-0.33731 0.219252,-0.252983 0.438503,-0.4891 0.236118,-0.252982 0.455369,-0.438503 0.219252,-0.202386 0.320445,-0.202386 0.354175,0 0.354175,0.691486 z M 55.339781,96.149116 q 0,-0.286714 -0.03373,-0.708352 -0.03373,-0.421637 -0.219251,-0.691485 -0.185521,-0.269849 -0.455369,-0.252983 -0.269848,0 -0.539696,0 -0.590293,0 -1.146855,0.185521 -0.539696,0.18552 -1.062526,0.52283 -0.522831,0.320445 -1.011931,0.758948 -0.472234,0.421638 -0.927603,0.893872 -0.387906,0.387907 -0.82641,0.961334 -0.421637,0.573427 -0.843275,1.264913 -0.404772,0.67462 -0.792679,1.433566 -0.387906,0.74208 -0.67462,1.48417 -0.286714,0.72521 -0.455369,1.4167 -0.168655,0.67462 -0.168655,1.23118 0,0.16866 0.03373,0.45537 0.0506,0.26985 0.134924,0.5397 0.101193,0.25298 0.252983,0.4385 0.168655,0.18552 0.404772,0.18552 0.775813,0 1.939533,-0.4891 1.585358,-0.67462 2.867136,-1.83834 1.298645,-1.18059 2.209382,-2.71535 1.315509,-2.378033 1.315509,-5.076514 z"
         style="font-style:normal;font-variant:normal;font-weight:normal;font-stretch:normal;font-size:34.54055786px;line-height:1.25;font-family:'Segoe Script';-inkscape-font-specification:'Segoe Script';fill:#5570f5;fill-opacity:1"
         id="path3858"
         inkscape:connector-curvature="0" />
      <path
         d="m 83.555773,101.56294 q 0,0.15179 -0.18552,0.43851 -0.168655,0.28671 -0.505966,0.65775 -0.320444,0.35418 -0.775813,0.77581 -0.455368,0.40478 -1.028796,0.80955 -1.399837,1.01193 -3.052656,2.05759 -1.65282,1.04566 -3.30564,2.05759 -1.332375,0.80955 -2.529826,1.4673 -1.197451,0.67462 -2.108188,1.12999 -0.573427,0.28671 -1.011931,0.4891 -0.421637,0.20239 -0.775813,0.33731 -0.354176,0.13492 -0.67462,0.18552 -0.303579,0.0675 -0.607158,0.0675 -0.15179,0 -0.371042,-0.10119 -0.219251,-0.0843 -0.404772,-0.25298 -0.18552,-0.15179 -0.320444,-0.35418 -0.134924,-0.20238 -0.134924,-0.42164 0,-1.07939 0.843275,-1.72028 0.202386,-0.15179 0.387907,-0.26985 0.18552,-0.11805 0.421637,-0.21925 0.236117,-0.11806 0.556562,-0.21925 0.33731,-0.10119 0.82641,-0.20239 0.910737,-0.18552 1.737147,-0.47223 0.843275,-0.28671 1.264913,-0.60716 0.421638,-0.32044 0.573427,-0.80954 0.168655,-0.4891 0.168655,-1.04566 0,-0.55656 -1.16372,-2.25998 -0.573427,-0.86014 -1.028796,-1.50103 -0.438503,-0.64089 -0.758947,-1.21432 -0.320445,-0.59029 -0.4891,-1.281776 -0.15179,-0.708351 -0.15179,-1.349241 0,-1.16372 0.421638,-2.378036 0.202386,-0.708351 0.624024,-1.399837 0.438503,-0.708352 0.961334,-1.264913 0.52283,-0.556562 1.045661,-0.910738 0.539696,-0.354175 0.944469,-0.354175 h 0.0506 q 1.484165,0 1.484165,1.754012 0,0.674621 -0.4891,1.31551 -0.4891,0.624024 -1.349241,1.332375 -0.421637,0.354176 -0.775813,0.624024 -0.354176,0.269848 -0.539696,0.455368 0,0.438504 0.134924,1.028796 0.134924,0.573428 0.404772,1.16372 0.286714,0.573428 0.742082,1.197451 0.455369,0.62402 0.893872,1.21432 0.269848,0.37104 0.556562,0.82641 0.303579,0.4385 0.556562,0.94446 0.252982,0.4891 0.421637,0.99507 0.168655,0.50597 0.202386,0.9782 0,0.0337 0.06746,0.10119 0.06746,0.0506 0.15179,0.0506 0.134924,0 0.522831,-0.20239 0.404772,-0.21925 0.961334,-0.53969 0.556561,-0.33731 1.214316,-0.74209 0.657755,-0.42163 1.298644,-0.82641 0.640889,-0.42163 1.214317,-0.79267 0.590292,-0.37105 0.995065,-0.62403 0.539696,-0.33731 0.809544,-0.59029 0.286713,-0.26985 0.522831,-0.26985 0.286713,0 0.421637,0.21925 0.134924,0.20239 0.134924,0.52283 z"
         style="font-style:normal;font-variant:normal;font-weight:normal;font-stretch:normal;font-size:34.54055786px;line-height:1.25;font-family:'Segoe Script';-inkscape-font-specification:'Segoe Script';fill:#5570f5;fill-opacity:1"
         id="path3860"
         inkscape:connector-curvature="0" />
      <path
         d="m 90.689882,93.450635 q 0,-0.185521 -0.101193,-0.337311 -0.101193,-0.151789 -0.252983,-0.252982 -0.134924,-0.101193 -0.303579,-0.15179 -0.15179,-0.06746 -0.269848,-0.06746 -0.742082,0 -1.517896,0.539696 -0.775813,0.522831 -1.450433,1.4673 -0.674621,0.944468 -1.180586,2.243112 -0.505965,1.298644 -0.691486,2.81654 0.236117,-0.15179 0.624024,-0.438504 0.387907,-0.286713 0.82641,-0.624023 0.455369,-0.354176 0.893872,-0.708352 0.455368,-0.354175 0.809544,-0.657754 0.775813,-0.657755 1.281779,-1.16372 0.505965,-0.522831 0.792678,-0.944469 0.30358,-0.438503 0.421638,-0.843275 0.118059,-0.421638 0.118059,-0.877006 z m 7.825595,7.201575 q 0,0.59029 -0.438503,1.28177 -0.438504,0.69149 -1.248048,1.55163 -0.927603,0.9782 -2.040726,1.82148 -1.113124,0.82641 -2.293709,1.45043 -1.180586,0.60716 -2.394902,0.96133 -1.214317,0.35418 -2.344305,0.35418 -2.647885,0 -4.098319,-1.70342 -1.450433,-1.70341 -1.450433,-4.99219 0,-1.04566 0.18552,-2.125051 0.185521,-1.096258 0.539697,-2.158785 0.371041,-1.062527 0.910737,-2.057592 0.556562,-0.995065 1.281778,-1.855206 0.455369,-0.52283 1.011931,-1.062526 0.556562,-0.539697 1.231182,-0.961334 0.67462,-0.438504 1.467299,-0.708352 0.809544,-0.269848 1.754013,-0.269848 0.67462,0 1.214316,0.269848 0.539696,0.252983 0.910737,0.657755 0.371042,0.404772 0.556562,0.910737 0.202386,0.505966 0.202386,0.995065 0,1.028796 -0.556561,2.091323 -0.556562,1.045662 -1.568493,2.125054 -1.01193,1.062527 -2.428633,2.141919 -1.416702,1.062523 -3.153849,2.125053 -0.236117,0.13493 -0.472234,0.30358 -0.236118,0.15179 -0.236118,0.38791 0,0.50596 0.134924,1.06252 0.134925,0.55657 0.4891,1.0288 0.354176,0.45537 0.944469,0.75895 0.607158,0.30358 1.534761,0.30358 1.180585,0 2.394902,-0.37104 1.231182,-0.38791 2.394902,-1.06253 1.180585,-0.67462 2.276843,-1.60222 1.113123,-0.92761 2.074457,-2.007 0.539697,-0.590292 0.860141,-0.590292 0.185521,0 0.269848,0.219251 0.08433,0.219251 0.08433,0.725221 z"
         style="font-style:normal;font-variant:normal;font-weight:normal;font-stretch:normal;font-size:34.54055786px;line-height:1.25;font-family:'Segoe Script';-inkscape-font-specification:'Segoe Script';fill:#5570f5;fill-opacity:1"
         id="path3862"
         inkscape:connector-curvature="0" />
      <path
         d="m 131.38635,96.840601 q 0,0.269849 -0.15179,0.607159 -0.15179,0.320444 -0.40477,0.67462 -0.25298,0.354176 -0.57343,0.725217 -0.32044,0.354175 -0.64089,0.708351 -0.25298,0.286714 -0.53969,0.590292 -0.28672,0.28671 -0.65776,0.65776 -0.35417,0.35417 -0.84327,0.84327 -0.4891,0.47224 -1.14686,1.11312 -0.59029,0.57343 -1.31551,1.21432 -0.70835,0.62402 -1.45043,1.23118 -0.72522,0.60716 -1.4167,1.16372 -0.69149,0.55656 -1.19745,0.9782 -1.21432,0.99507 -2.31058,1.87207 -1.09626,0.89388 -2.15878,1.60223 -2.10819,1.4167 -3.33937,1.4167 -0.42164,0 -0.9782,-0.21925 -0.57343,-0.21925 -0.57343,-0.60716 0,-1.09626 0.82641,-1.72028 0.80954,-0.5903 2.52983,-1.28178 1.68655,-0.67462 2.52982,-1.31551 0.84328,-0.64089 0.84328,-1.75401 0,-0.55656 -1.16372,-2.25998 -0.57343,-0.86014 -1.0288,-1.56849 -0.4385,-0.72522 -0.75895,-1.29865 -0.64089,-1.180583 -0.64089,-2.479227 0,-1.129989 0.42164,-2.378036 0.20239,-0.708351 0.64089,-1.416703 0.45537,-0.725217 0.9782,-1.281778 0.52283,-0.573428 1.06253,-0.910738 0.53969,-0.33731 0.94447,-0.320444 1.48416,0 1.48416,1.754012 0,0.674621 -0.4891,1.31551 -0.23612,0.303579 -0.57343,0.640889 -0.33731,0.320445 -0.77581,0.691486 -0.42164,0.354176 -0.72522,0.624024 -0.28671,0.269848 -0.47223,0.455368 0,0.877007 0.5397,2.057592 0.28671,0.573427 0.65775,1.248045 0.37104,0.67462 0.86014,1.45044 0.4891,0.77581 0.82641,1.39983 0.33731,0.60716 0.50597,0.89388 0.0169,0.0675 0.18552,0.0675 0.23611,0 0.80954,-0.33731 0.59029,-0.35418 1.38297,-0.92761 0.80955,-0.59029 1.75402,-1.34924 0.94446,-0.77581 1.88893,-1.63595 0.9782,-0.877007 1.61909,-1.534762 0.64089,-0.657754 1.21432,-1.231182 0.57342,-0.573427 0.84327,-0.877006 0.28672,-0.320445 0.32045,-0.320445 0.13492,0 0.25298,0.101194 0.11806,0.101193 0.20239,0.269848 0.10119,0.151789 0.15179,0.33731 0.0506,0.168655 0.0506,0.320444 z"
         style="font-style:normal;font-variant:normal;font-weight:normal;font-stretch:normal;font-size:34.54055786px;line-height:1.25;font-family:'Segoe Script';-inkscape-font-specification:'Segoe Script';fill:#5570f5;fill-opacity:1"
         id="path3864"
         inkscape:connector-curvature="0" />
      <path
         d="m 146.63277,94.445699 q 0,0.30358 -0.0843,0.522831 -0.0843,0.219252 -0.23611,0.371041 -0.15179,0.15179 -0.35418,0.286714 -0.20239,0.118058 -0.42164,0.236117 -0.55656,0.252983 -1.33237,0.421638 -0.75895,0.168655 -1.58536,0.303579 -0.80954,0.118058 -1.61909,0.219251 -0.79268,0.08433 -1.45043,0.185521 -1.23118,0.185521 -2.17565,0.303579 -0.94447,0.101193 -1.63596,0.202386 -0.69148,0.101193 -1.14685,0.219252 -0.45537,0.118058 -0.72522,0.33731 -0.35417,1.534761 -0.74208,3.120122 -0.37104,1.56849 -0.64089,2.95146 -0.0506,0.23612 -0.11806,0.50597 -0.0506,0.25298 -0.11806,0.53969 -0.11806,0.59029 -0.18552,1.04566 -0.0675,0.43851 -0.0675,0.84328 0,0.57343 0.11806,0.9276 0.0675,0.18552 0.15179,0.4891 0.0843,0.28671 0.21925,0.67462 0.26985,0.79268 0.26985,1.12999 0,0.5397 -0.4385,1.16372 -0.42164,0.62402 -0.94447,0.62402 -0.55656,0 -1.14686,-0.84327 -0.28671,-0.42164 -0.50596,-0.84328 -0.21925,-0.40477 -0.38791,-0.82641 -0.26985,-0.80954 -0.26985,-1.58535 0,-0.16866 0.0169,-0.33731 0.0169,-0.18552 0.0506,-0.38791 0.0675,-0.37104 0.20239,-0.9276 0.0675,-0.26985 0.10119,-0.45537 0.0506,-0.20239 0.0843,-0.32045 0.40477,-1.87207 0.67462,-3.13698 0.28672,-1.26491 0.42164,-1.97327 0.35417,-1.585353 0.35417,-1.787739 0,-0.269848 -0.20238,-0.404773 -0.18552,-0.151789 -0.45537,-0.151789 -0.32044,0 -0.72522,0.03373 -0.40477,0.01686 -0.89387,0.08433 -0.4891,0.06746 -0.80954,0.101193 -0.32045,0.01687 -0.47224,0.01687 -0.60716,0 -1.11312,-0.185521 -0.4891,-0.18552 -0.84328,-0.52283 -0.37104,-0.354176 -0.57342,-0.82641 -0.20239,-0.4891 -0.20239,-1.096258 0.47223,0.06746 0.96133,0.101193 0.50597,0.01687 1.04567,0.01687 0.23611,0 0.70835,-0.01687 0.4891,-0.03373 1.21431,-0.101193 0.74209,-0.06746 1.26492,-0.101193 0.53969,-0.03373 0.877,-0.03373 0.40478,0 0.89388,-1.248048 0.23611,-0.640889 0.4385,-1.298644 0.21925,-0.657754 0.3879,-1.366106 0.18553,-0.708351 0.30358,-1.248047 0.13493,-0.556562 0.21926,-0.944469 0.0337,-0.101193 0.15179,-0.742082 0.0843,-0.33731 0.13492,-0.624024 0.0675,-0.303579 0.10119,-0.539696 0.11806,-0.640889 0.25298,-1.180585 0.15179,-0.539697 0.33732,-0.9782 0.37104,-0.877006 1.19745,-0.877006 1.24804,0 1.24804,1.382972 0,0.86014 -0.37104,1.973264 -1.60222,5.110248 -1.60222,6.240237 0,0.624024 0.62402,0.624024 1.53476,0 3.10326,-0.06746 1.58535,-0.08433 3.06952,-0.219252 0.77581,-0.06746 1.3661,-0.134924 0.60716,-0.08433 1.11313,-0.151789 0.50596,-0.08433 0.96133,-0.15179 0.47224,-0.06746 0.99507,-0.134924 0.10119,-0.01686 0.25298,-0.01686 0.16865,-0.01687 0.32044,0.03373 0.15179,0.0506 0.26985,0.18552 0.11806,0.118059 0.11806,0.371041 z"
         style="font-style:normal;font-variant:normal;font-weight:normal;font-stretch:normal;font-size:34.54055786px;line-height:1.25;font-family:'Segoe Script';-inkscape-font-specification:'Segoe Script';fill:#5570f5;fill-opacity:1"
         id="path3866"
         inkscape:connector-curvature="0" />
      <path
         d="m 172.95983,95.390168 q 0,0.640889 -0.32045,1.467299 -0.32044,0.809544 -0.87701,1.517896 -0.70835,0.910737 -1.60222,1.804607 -0.87701,0.89387 -1.83834,1.72028 -0.96133,0.80955 -1.9564,1.5179 -0.99506,0.69148 -1.93953,1.21432 -0.9276,0.50596 -1.75401,0.80954 -0.82641,0.28671 -1.45044,0.28671 -0.79268,0 -1.38297,-0.26984 -0.59029,-0.26985 -1.0288,-0.72522 -0.42163,-0.47224 -0.70835,-1.09626 -0.28671,-0.62402 -0.50596,-1.31551 -0.20239,-0.69148 -0.33731,-1.4167 -0.13493,-0.74208 -0.25298,-1.43357 -0.42164,0.64089 -0.96134,1.45043 -0.52283,0.79268 -1.11312,1.61909 -0.57343,0.82641 -1.18059,1.60223 -0.59029,0.75894 -1.11312,1.33237 -0.59029,0.62402 -1.29864,1.19745 -0.69149,0.57343 -1.48417,1.01193 -0.77581,0.42164 -1.63595,0.69149 -0.86014,0.25298 -1.77088,0.25298 -1.33238,0 -2.09132,-1.09626 -0.74209,-1.09626 -0.74209,-2.52982 0,-0.67462 0.1012,-1.39984 0.11805,-0.74208 0.25298,-1.4673 0.15179,-0.72522 0.28671,-1.4167 0.13493,-0.70835 0.18552,-1.332377 0.0169,-0.252983 0.0169,-0.624024 0.0169,-0.387906 0.0169,-0.893872 0,-0.455368 0,-0.82641 0,-0.387906 0.0169,-0.725216 0.0169,-0.354176 0.0506,-0.691486 0.0337,-0.33731 0.10119,-0.708351 0.10119,-0.573428 0.45537,-0.995065 0.35417,-0.421638 1.11312,-0.421638 1.55163,0 1.55163,2.141919 0,0.371042 -0.0843,0.82641 -0.0675,0.438503 -0.16865,0.927603 -0.1012,0.472234 -0.21926,0.9782 -0.10119,0.489099 -0.18552,0.961333 -0.16865,0.657755 -0.33731,1.315514 -0.16865,0.65775 -0.32044,1.28177 -0.13493,0.62403 -0.21925,1.21432 -0.0843,0.57343 -0.0843,1.06253 0,0.25298 0.0675,0.57343 0.0675,0.30357 0.20239,0.59029 0.13492,0.26985 0.35417,0.45537 0.23612,0.18552 0.5397,0.18552 0.89387,0 1.80461,-0.4891 0.91074,-0.50597 1.73715,-1.23118 0.84327,-0.74209 1.56849,-1.5685 0.74208,-0.84327 1.29864,-1.53476 0.5397,-0.69148 1.06253,-1.635952 0.53969,-0.944468 1.01193,-1.956399 0.4891,-1.028796 0.9276,-2.040726 0.43851,-1.011931 0.79268,-1.821475 0.79268,-1.855206 1.4167,-1.855206 0.45537,0 0.60716,0.15179 0.15179,0.134924 0.15179,0.573427 0,0.33731 -0.0843,0.910738 -0.0675,0.573427 -0.16865,1.197451 -0.10119,0.624023 -0.18552,1.197451 -0.0675,0.573427 -0.0675,0.893871 0,0.286714 0,0.708352 0.0169,0.404772 0.0337,0.843275 0.0169,0.438503 0.0506,0.877006 0.0506,0.421638 0.11806,0.725217 0.0675,0.35418 0.23612,0.87701 0.16865,0.50596 0.42164,0.99506 0.26984,0.4891 0.64089,0.84328 0.37104,0.33731 0.86014,0.33731 0.91073,0 2.05759,-0.5397 1.16372,-0.5397 2.37804,-1.38297 1.21431,-0.86014 2.41176,-1.905803 1.19745,-1.062527 2.22625,-2.091323 0.40477,-0.404772 0.80954,-0.809544 0.42164,-0.404772 0.75895,-0.674621 0.35418,-0.269848 0.55656,-0.354175 0.21926,-0.08433 0.21926,0.134924 z"
         style="font-style:normal;font-variant:normal;font-weight:normal;font-stretch:normal;font-size:34.54055786px;line-height:1.25;font-family:'Segoe Script';-inkscape-font-specification:'Segoe Script';fill:#5570f5;fill-opacity:1"
         id="path3868"
         inkscape:connector-curvature="0" />
      <path
         d="m 197.29675,95.069723 q 0,0.219252 -0.10119,0.455369 -0.10119,0.236117 -0.20239,0.438503 -0.37104,0.708351 -0.96133,1.551627 -0.57343,0.82641 -1.26491,1.68655 -0.67462,0.843278 -1.4167,1.635958 -0.72522,0.79268 -1.38298,1.39983 -0.55656,0.52283 -1.26491,1.16372 -0.70835,0.64089 -1.4673,1.19745 -0.75895,0.55657 -1.53476,0.94447 -0.77581,0.37104 -1.4673,0.37104 -0.35417,0 -0.86014,-0.23611 -1.04566,-0.47224 -1.68655,-1.78775 -0.30358,-0.65775 -0.4891,-1.28178 -0.18552,-0.62402 -0.28671,-1.28177 -0.1012,-0.65776 -0.16866,-1.382975 -0.0675,-0.742083 -0.15179,-1.635955 -2.10819,3.92966 -5.46442,6.98232 -3.35624,3.06952 -6.98232,3.06952 -0.99507,0 -1.5179,-1.06252 -0.52283,-1.06253 -0.52283,-2.17565 0,-1.5179 0.25298,-2.25998 0.70836,-2.15879 1.61909,-4.047724 0.92761,-1.888937 2.24312,-3.710412 0.42163,-0.590293 0.91073,-1.180585 0.4891,-0.590293 1.04566,-1.180586 1.11313,-1.180585 2.09133,-1.68655 1.21431,-0.657755 3.49116,-0.657755 0.79268,0 1.34924,0.877006 0.57342,0.910738 0.84327,2.040726 0.28672,1.180586 0.28672,1.922668 0.25298,-0.82641 0.45536,-1.669685 0.20239,-0.860141 0.35418,-1.770878 0.15179,-0.910737 0.26985,-1.905802 0.13492,-1.011931 0.23612,-2.158785 0.0337,-0.303579 0.0675,-0.775814 0.0337,-0.472234 0.0843,-1.113123 0.10119,-1.31551 0.20238,-2.209381 0.10119,-0.910738 0.26985,-1.180586 0.38791,-0.691486 1.4167,-0.691486 0.4891,0 0.99507,0.219252 0.52283,0.202386 0.52283,0.573427 0,0.202386 -0.0843,0.657755 -0.0675,0.455369 -0.20239,1.180585 -0.13492,0.725217 -0.37104,1.80461 -0.21925,1.079392 -0.4891,2.546691 -0.16865,1.011931 -0.32044,1.855206 -0.13493,0.843275 -0.25298,1.534761 -0.21926,1.366106 -0.35418,2.563557 -0.13492,1.197451 -0.13492,2.428633 0,0.134924 0.0169,0.640889 0.0169,0.4891 0.0675,1.180586 0.0506,0.67462 0.11806,1.43357 0.0843,0.75895 0.21925,1.39983 0.13493,0.64089 0.32045,1.06253 0.18552,0.42164 0.4385,0.42164 0.35418,0 0.62403,-0.0675 0.28671,-0.0675 0.59029,-0.21925 0.30358,-0.15179 0.65775,-0.37105 0.35418,-0.23611 0.84328,-0.55656 0.4891,-0.32044 1.04566,-0.79268 0.57343,-0.47223 1.14685,-0.99506 0.57343,-0.539697 1.09626,-1.079393 0.5397,-0.539696 0.96134,-0.995065 1.01193,-1.079392 1.92266,-2.158785 0.92761,-1.079392 1.63596,-1.83834 0.0506,-0.0506 0.25298,-0.08433 0.21925,-0.0506 0.25298,-0.0506 0.1012,0 0.13493,0.118058 0.0337,0.101193 0.0506,0.252983 0.0169,0.151789 0,0.33731 0,0.168655 0,0.303579 z m -16.44387,2.681616 q -0.4385,-0.101193 -0.67462,-0.438503 -0.21925,-0.337311 -0.21925,-0.758948 0,-0.33731 0.1012,-0.995065 0.10119,-0.657755 0.10119,-1.011931 0,-0.303579 -0.16866,-0.67462 -0.15179,-0.387906 -0.40477,-0.708351 -0.25298,-0.33731 -0.57343,-0.556562 -0.30357,-0.236117 -0.60715,-0.236117 -0.89388,0 -2.42864,1.872071 -0.77581,0.944469 -1.43356,1.838341 -0.64089,0.877006 -1.18059,1.737147 -0.57343,0.944468 -0.99507,1.720281 -0.42163,0.758948 -0.70835,1.366108 -0.99506,2.12505 -0.99506,3.3731 0,1.56849 1.06253,1.56849 0.94446,0 2.59728,-1.09626 1.66969,-1.12998 2.63102,-2.09132 0.96134,-0.99506 1.60223,-1.68655 0.64088,-0.70835 1.01193,-1.129988 0.72521,-0.843276 1.28177,-2.091323 z"
         style="font-style:normal;font-variant:normal;font-weight:normal;font-stretch:normal;font-size:34.54055786px;line-height:1.25;font-family:'Segoe Script';-inkscape-font-specification:'Segoe Script';fill:#5570f5;fill-opacity:1"
         id="path3870"
         inkscape:connector-curvature="0" />
      <path
         d="m 210.1314,103.77232 q -3.10325,2.4961 -5.75114,3.87907 -2.64788,1.38297 -4.75607,1.38297 -1.12999,0 -2.007,-0.25298 -0.86014,-0.25298 -1.4673,-0.87701 -0.59029,-0.62402 -0.89387,-1.65282 -0.30358,-1.02879 -0.30358,-2.59728 0,-0.25299 0.0675,-0.67462 0.0675,-0.43851 0.16865,-0.96134 0.11806,-0.53969 0.23612,-1.11312 0.13492,-0.59029 0.23612,-1.12999 0.11805,-0.556562 0.18552,-1.028796 0.0675,-0.472235 0.0675,-0.775814 0,-0.52283 -0.13493,-0.944468 -0.11805,-0.438503 -0.11805,-0.725217 0,-0.303579 0.10119,-0.624024 0.11806,-0.33731 0.3879,-0.607158 0.28672,-0.269848 0.75895,-0.438503 0.4891,-0.185521 1.21432,-0.185521 0.10119,0 0.25298,0.08433 0.16866,0.08433 0.30358,0.236117 0.13492,0.15179 0.23612,0.33731 0.10119,0.185521 0.10119,0.387907 0,0.421638 -0.11806,1.028796 -0.11806,0.607158 -0.28671,1.332375 -0.16866,0.708351 -0.38791,1.484164 -0.20238,0.758942 -0.37104,1.501032 -0.16865,0.72521 -0.28671,1.38297 -0.11806,0.65775 -0.11806,1.14685 0,0.82641 0.13492,1.43357 0.15179,0.60716 0.47224,1.01193 0.33731,0.40477 0.877,0.60716 0.55657,0.20239 1.34924,0.20239 0.9782,0 2.0576,-0.35418 1.07939,-0.37104 2.27684,-1.04566 1.19745,-0.67462 2.51296,-1.63596 1.31551,-0.96133 2.76594,-2.15878 0.11806,-0.0843 0.20239,-0.15179 0.10119,-0.0675 0.21925,-0.0675 0.23612,0 0.40477,0.18552 0.18552,0.18552 0.18552,0.57343 0,0.15179 -0.0169,0.37104 -0.0169,0.21925 -0.1012,0.47223 -0.0675,0.23612 -0.21925,0.4891 -0.15179,0.25298 -0.4385,0.47223 z m -8.85439,-18.619515 q 0,0.202386 -0.11806,0.640889 -0.10119,0.421638 -0.25298,0.877007 -0.15179,0.455369 -0.30358,0.843275 -0.15179,0.387907 -0.23612,0.505965 -0.0843,0.15179 -0.26985,0.320445 -0.18552,0.168655 -0.40477,0.320445 -0.21925,0.151789 -0.45537,0.252982 -0.21925,0.101193 -0.3879,0.101193 -0.18552,0 -0.40478,-0.168655 -0.21925,-0.18552 -0.40477,-0.438503 -0.18552,-0.269848 -0.32044,-0.573427 -0.13493,-0.320445 -0.13493,-0.573427 0,-0.505966 0.26985,-1.113124 0.26985,-0.607158 0.70835,-1.129989 0.43851,-0.522831 0.9782,-0.877006 0.55656,-0.354176 1.11313,-0.354176 0.20238,0 0.40477,0.387907 0.21925,0.387906 0.21925,0.978199 z"
         style="font-style:normal;font-variant:normal;font-weight:normal;font-stretch:normal;font-size:34.54055786px;line-height:1.25;font-family:'Segoe Script';-inkscape-font-specification:'Segoe Script';fill:#5570f5;fill-opacity:1"
         id="path3872"
         inkscape:connector-curvature="0" />
      <path
         d="m 230.5218,97.397163 q 0,0.252983 -0.37104,0.893872 -0.87701,1.264913 -1.97327,2.529825 -1.07939,1.26491 -2.31057,2.41177 -1.21432,1.12999 -2.54669,2.12505 -1.31551,0.9782 -2.66475,1.70342 -1.34924,0.70835 -2.69848,1.09626 -1.33238,0.3879 -2.58043,0.37104 -2.69848,0 -4.19951,-1.56849 -1.48416,-1.5685 -1.48416,-4.73921 0,-2.647887 0.80954,-5.143982 0.82641,-2.496095 2.79968,-4.806669 0.37104,-0.404772 0.82641,-0.775813 0.47223,-0.371041 0.97819,-0.657755 0.52284,-0.286714 1.06253,-0.455369 0.55656,-0.168655 1.11313,-0.202386 0.13492,0 0.37104,0.03373 0.23611,0.03373 0.50596,0.118059 0.26985,0.08433 0.52283,0.219251 0.25298,0.118059 0.40477,0.303579 0.47224,0.539697 0.74209,1.113124 0.28671,0.573427 0.32044,1.264913 0.0337,0.775813 -0.18552,1.534761 -0.20239,0.742082 -0.70835,1.534761 -0.4891,0.775813 -1.29864,1.619089 -0.80955,0.82641 -1.9564,1.787744 -0.72522,0.607163 -1.61909,1.349243 -0.87701,0.72521 -2.12506,1.53476 0,1.63595 0.9782,2.49609 0.99507,0.84328 2.71535,0.84328 0.96133,0 1.93953,-0.25298 0.9782,-0.25299 1.92267,-0.65776 0.94447,-0.42164 1.82148,-0.94447 0.89387,-0.53969 1.66968,-1.09625 1.43357,-1.04567 2.59729,-2.07446 1.16372,-1.045664 2.31057,-2.192518 l 0.91074,-0.910738 q 0.82641,-0.725217 1.19745,-0.725217 0.20239,0 0.20239,0.320446 z m -12.88525,-3.356236 q -0.0169,-0.252982 -0.0843,-0.489099 -0.0506,-0.252983 -0.16865,-0.438504 -0.11806,-0.18552 -0.26985,-0.286713 -0.15179,-0.118059 -0.35418,-0.118059 -0.89387,0.0506 -1.78774,1.096258 -0.89387,1.028796 -1.68655,2.732212 -0.18552,0.371041 -0.33731,0.843276 -0.13492,0.455368 -0.26985,0.944468 -0.11806,0.472234 -0.21925,0.944468 -0.0843,0.472235 -0.15179,0.843276 0.87701,-0.657755 1.61909,-1.214317 0.74208,-0.556561 1.38297,-1.146854 0.40477,-0.371041 0.82641,-0.792679 0.42164,-0.438503 0.75895,-0.910737 0.35417,-0.472235 0.55656,-0.9782 0.20239,-0.505965 0.18552,-1.028796 z"
         style="font-style:normal;font-variant:normal;font-weight:normal;font-stretch:normal;font-size:34.54055786px;line-height:1.25;font-family:'Segoe Script';-inkscape-font-specification:'Segoe Script';fill:#5570f5;fill-opacity:1"
         id="path3874"
         inkscape:connector-curvature="0" />
      <path
         d="m 237.67278,105.37455 q 0,0.86014 -0.30358,1.68655 -0.30358,0.80954 -0.82641,1.53476 -0.50597,0.72522 -1.18059,1.33237 -0.65775,0.62403 -1.38297,1.06253 -0.70835,0.45537 -1.43357,0.69149 -0.72521,0.25298 -1.33237,0.25298 -0.84328,0 -1.11312,-0.37104 -0.26985,-0.37104 -0.26985,-1.04566 0,-0.62403 0.23611,-0.96134 0.23612,-0.32044 0.67462,-0.55656 0.0506,-0.0169 0.18552,-0.0337 0.13493,-0.0337 0.28672,-0.0337 0.16865,-0.0169 0.32044,-0.0169 0.16866,-0.0169 0.26985,-0.0169 0.11806,0 0.33731,-0.0506 0.21925,-0.0506 0.47224,-0.13492 0.25298,-0.10119 0.52283,-0.23612 0.26984,-0.15179 0.50596,-0.33731 0.67462,-0.5397 0.94447,-1.19745 0.28671,-0.67462 0.28671,-1.19745 0,-0.65776 -0.42163,-1.23118 -0.42164,-0.57343 -1.06253,-1.11313 -0.64089,-0.55656 -1.38297,-1.09625 -0.74208,-0.55657 -1.38297,-1.16372 -0.64089,-0.62403 -1.06253,-1.315514 -0.42164,-0.691486 -0.42164,-1.534761 0,-0.421638 0.10119,-0.893872 0.11806,-0.472234 0.28672,-0.927603 0.18552,-0.455368 0.40477,-0.877006 0.23612,-0.438503 0.4891,-0.792679 0.40477,-0.573427 0.87701,-1.129989 0.4891,-0.556562 0.9782,-0.978199 0.4891,-0.438503 0.96133,-0.691486 0.47223,-0.269848 0.87701,-0.269848 1.14685,0 1.14685,1.34924 0,0.472235 -0.38791,1.096258 -0.37104,0.624024 -0.89387,1.146855 -0.80954,0.775813 -1.4167,1.332375 -0.60716,0.539696 -1.12999,1.113123 0.38791,0.573428 0.84328,1.045662 0.45536,0.472234 0.94446,0.910737 0.50597,0.438507 1.01193,0.860137 0.52284,0.42164 1.0288,0.87701 0.47223,0.4385 0.89387,0.89387 0.43851,0.43851 0.77582,0.9276 0.33731,0.47224 0.53969,0.99507 0.20239,0.52283 0.20239,1.09626 z"
         style="font-style:normal;font-variant:normal;font-weight:normal;font-stretch:normal;font-size:34.54055786px;line-height:1.25;font-family:'Segoe Script';-inkscape-font-specification:'Segoe Script';fill:#5570f5;fill-opacity:1"
         id="path3876"
         inkscape:connector-curvature="0" />
    </g>
  </g>
</svg>
