<?xml version="1.0" encoding="UTF-8" standalone="no"?>
<svg
   xmlns:dc="http://purl.org/dc/elements/1.1/"
   xmlns:cc="http://creativecommons.org/ns#"
   xmlns:rdf="http://www.w3.org/1999/02/22-rdf-syntax-ns#"
   xmlns:svg="http://www.w3.org/2000/svg"
   xmlns="http://www.w3.org/2000/svg"
   xmlns:sodipodi="http://sodipodi.sourceforge.net/DTD/sodipodi-0.dtd"
   xmlns:inkscape="http://www.inkscape.org/namespaces/inkscape"
   width="250px"
   height="105px"
   viewBox="0 0 250 105"
   version="1.1"
   id="svg2"
   inkscape:version="0.91 r13725"
   sodipodi:docname="clarity-curated-logo.svg">
  <metadata
     id="metadata97">
    <rdf:RDF>
      <cc:Work
         rdf:about="">
        <dc:format>image/svg+xml</dc:format>
        <dc:type
           rdf:resource="http://purl.org/dc/dcmitype/StillImage" />
        <dc:title>Group</dc:title>
      </cc:Work>
    </rdf:RDF>
  </metadata>
  <sodipodi:namedview
     pagecolor="#ffffff"
     bordercolor="#666666"
     borderopacity="1"
     objecttolerance="10"
     gridtolerance="10"
     guidetolerance="10"
     inkscape:pageopacity="0"
     inkscape:pageshadow="2"
     inkscape:window-width="1920"
     inkscape:window-height="1017"
     id="namedview95"
     showgrid="false"
     inkscape:zoom="4.928"
     inkscape:cx="108.22707"
     inkscape:cy="33.381704"
     inkscape:window-x="-8"
     inkscape:window-y="-8"
     inkscape:window-maximized="1"
     inkscape:current-layer="Group" />
  <!-- Generator: Sketch 47 (45396) - http://www.bohemiancoding.com/sketch -->
  <title
     id="title4">Group</title>
  <desc
     id="desc6">Created with Sketch.</desc>
  <defs
     id="defs8" />
  <g
     style="fill:none;fill-rule:evenodd;stroke:none;stroke-width:1"
     id="Group">
    <g
       style="fill-rule:nonzero"
       id="clarity-marketplace-logo">
      <path
         style="opacity:0.7;fill:#666363"
         inkscape:connector-curvature="0"
         id="Shape"
         d="m 48.1,0 9.8,0 0,57.4 c 0,2.3 1.2,3.4 3.7,3.4 l 3.4,0 0,9.4 -4.4,0 c -3.6,0 -6.5,-0.9 -8.8,-2.7 -2.4,-1.9 -3.7,-5 -3.7,-9.4 l 0,-58.1 0,0 z" />
      <path
         style="opacity:0.7;fill:#666363"
         inkscape:connector-curvature="0"
         id="path14"
         d="m 99.2,65.9 -0.2,0 c -0.9,1.7 -2.3,3 -4.2,3.8 C 92.9,70.5 90.3,71 87,71 81.6,70.9 77.4,69.5 74.4,66.6 71.3,63.8 69.8,60.2 69.8,55.8 c 0,-4.2 1.3,-7.7 4,-10.5 2.7,-2.8 6.6,-4.3 11.8,-4.3 l 13.5,0 0,-5.3 c 0.1,-4.4 -3.3,-6.6 -10,-6.4 -2.4,0 -4.4,0.3 -5.8,0.8 -1.5,0.6 -2.6,1.6 -3.5,3.1 l -7.7,-6 c 3.7,-5 9.2,-7.4 16.4,-7.3 6.1,-0.1 11,1.1 14.7,3.6 3.7,2.5 5.5,6.8 5.6,12.9 l 0,34.2 -9.8,0 0,-4.7 0.2,0 z m 0,-16.8 -11.8,0 c -5.7,0.1 -8.5,2.1 -8.5,6 0,1.7 0.7,3.2 2.2,4.3 1.4,1.3 3.7,2 7,2 4.1,0.1 7,-0.4 8.7,-1.5 1.5,-1.1 2.3,-3.5 2.3,-7.2 l 0,-3.6 0.1,0 z" />
      <path
         style="opacity:0.7;fill:#666363"
         inkscape:connector-curvature="0"
         id="path16"
         d="m 123.2,20.2 9.8,0 0,5.3 0.2,0 c 3.2,-4 7.4,-5.9 12.7,-5.9 3.9,0.1 7.3,1.3 10.2,3.8 l -7.1,8.7 c -2.1,-1.7 -4.2,-2.5 -6.4,-2.5 -2.5,0 -4.6,0.8 -6.4,2.5 -2,1.6 -3,4.3 -3.1,8 l 0,30.2 -9.8,0 0,-50.1 -0.1,0 z" />
      <path
         style="opacity:0.7;fill:#666363"
         inkscape:connector-curvature="0"
         id="path18"
         d="m 162.1,0 9.8,0 0,10 -9.8,0 0,-10 z m 0,20.2 9.8,0 0,50 -9.8,0 0,-50 z" />
      <path
         style="opacity:0.7;fill:#666363"
         inkscape:connector-curvature="0"
         id="path20"
         d="m 186.1,5 9.8,0 0,15.2 7.1,0 0,7.8 -7.1,0 0,29.2 c -0.1,2.5 1.1,3.8 3.5,3.7 l 3.7,0 0,9.4 -5.1,0 c -3.4,0 -6.2,-1.1 -8.4,-3.3 -2.2,-2.1 -3.4,-5.1 -3.4,-9.1 l 0,-29.9 -4.9,0 0,-7.7 4.9,0 0,-15.3 -0.1,0 z" />
      <path
         style="opacity:0.7;fill:#666363"
         inkscape:connector-curvature="0"
         id="path22"
         d="m 206.1,20.2 10.4,0 11.5,35.1 0.2,0 11.5,-35.1 10.3,0 -20.9,60.4 c -1.3,3.8 -3.2,6.4 -5.6,7.8 -2.4,1.4 -5.1,2.1 -8.2,2.1 l -3.2,0 0,-9.4 2.9,0 c 1.3,0 2.5,-0.4 3.6,-1.1 1.1,-0.7 1.9,-1.8 2.3,-3.3 l 2.7,-8.4 -17.5,-48.1 z" />
      <g
         style="fill:#4260f4"
         transform="translate(0,19)"
         id="g24">
        <polygon
           style="opacity:0.8"
           id="polygon26"
           points="39.6,9.4 31.9,7.4 32.4,16 " />
        <path
           style="opacity:0.7"
           inkscape:connector-curvature="0"
           id="path28"
           d="M 31.9,7.4 26.4,1.1 c 2,0.4 3.9,1 5.6,2 2.9,1.6 5.4,3.7 7.5,6.3 l -7.6,-2 z" />
        <path
           style="opacity:0.8"
           inkscape:connector-curvature="0"
           id="path30"
           d="M 26.5,1.1 32.4,16 c -2.5,-3.4 -5.8,-5.1 -9.9,-5.3 l 4,-9.6 z" />
        <path
           style="opacity:0.8"
           inkscape:connector-curvature="0"
           id="path32"
           d="M 16.9,5.5 17.8,1 c 1.4,-0.3 2.8,-0.4 4.3,-0.4 1.5,0 3,0.2 4.4,0.4 l -9.6,4.5 z" />
        <polygon
           style="opacity:0.7"
           id="polygon34"
           points="22.5,10.7 16.9,5.5 26.5,1.1 " />
        <path
           style="opacity:0.8"
           inkscape:connector-curvature="0"
           id="path36"
           d="M 6.9,6.6 C 10.1,3.6 13.7,1.8 17.7,1 L 16.8,5.5 6.9,6.6 Z" />
        <polygon
           style="opacity:0.9"
           id="polygon38"
           points="22.4,10.7 6.9,6.6 16.8,5.5 " />
        <polygon
           style="opacity:0.7"
           id="polygon40"
           points="12.5,15.1 4.5,21 6.9,6.6 " />
        <path
           style="opacity:0.9"
           inkscape:connector-curvature="0"
           id="path42"
           d="M 0.8,18.4 C 1.8,13.3 3.9,9.3 7,6.6 L 4.5,21 0.8,18.4 Z" />
        <path
           style="opacity:0.7"
           inkscape:connector-curvature="0"
           id="path44"
           d="m 7.8,22.3 4.7,-7.2 c -1.8,2.6 -2.7,6.4 -2.8,11.3 0,2.6 0.3,4.9 0.9,6.9 l -2.8,-11 z" />
        <polygon
           style="opacity:0.8"
           id="polygon46"
           points="7.8,22.3 4.5,21 12.5,15.1 " />
        <polygon
           style="opacity:0.9"
           id="polygon48"
           points="7.8,22.3 2.7,28.5 4.5,21 " />
        <path
           style="opacity:0.85"
           inkscape:connector-curvature="0"
           id="path50"
           d="M 1.1,35.5 C 0.4,32.8 0.1,29.8 0,26.4 0,23.5 0.3,20.8 0.8,18.4 L 4.5,21 1.1,35.5 Z" />
        <polygon
           style="opacity:0.85"
           id="polygon52"
           points="10.6,44.6 1.1,35.5 2.8,28.5 " />
        <polygon
           style="opacity:0.95"
           id="polygon54"
           points="10.5,44.5 2.7,28.5 10.6,33.2 " />
        <path
           style="opacity:0.8"
           inkscape:connector-curvature="0"
           id="path56"
           d="M 6.9,45.9 C 4.1,43.4 2.1,39.9 1,35.5 l 9.5,9.1 -3.6,1.3 z" />
        <path
           style="opacity:0.75"
           inkscape:connector-curvature="0"
           id="path58"
           d="m 10.5,44.6 0.1,-11.3 c 0,0 4,14.3 4,14.3 l -4.1,-3 z" />
        <polygon
           style="opacity:0.9"
           id="polygon60"
           points="14.6,47.6 6.9,45.9 10.5,44.6 " />
        <path
           style="opacity:0.7"
           inkscape:connector-curvature="0"
           id="path62"
           d="m 14.7,47.6 c 0,0 -4.5,-16 -3.9,-13.9 1.4,4.6 4.2,7.3 8.6,8 l -4.7,5.9 z" />
        <path
           style="opacity:0.95"
           inkscape:connector-curvature="0"
           id="path64"
           d="M 22.1,52 C 16.4,52 11.3,50 7,46 l 7.7,1.7 7.4,4.3 z" />
        <polygon
           style="opacity:0.8"
           id="polygon66"
           points="19.3,41.7 22.1,52 14.7,47.6 " />
        <polygon
           style="opacity:0.75"
           id="polygon68"
           points="23.4,45.4 22.1,52 19.3,41.7 " />
        <path
           style="opacity:0.8"
           inkscape:connector-curvature="0"
           id="path70"
           d="m 23.4,45.4 -4.1,-3.7 c 1,0.2 2,0.2 3.1,0.2 2.6,0 4.8,-0.7 6.8,-2.1 l -5.8,5.6 z" />
        <path
           style="opacity:0.95"
           inkscape:connector-curvature="0"
           id="path72"
           d="M 27.8,51.2 C 26,51.7 24.1,52 22.1,52 l 1.4,-6.5 4.3,5.7 z" />
        <polygon
           style="opacity:0.7"
           id="polygon74"
           points="29.2,39.9 34.3,48.1 23.4,45.5 " />
        <polygon
           style="opacity:0.7"
           id="polygon76"
           points="32.3,36.7 39.6,43.3 34.4,42.2 " />
        <polygon
           style="opacity:0.85"
           id="polygon78"
           points="34.4,42.2 39.6,43.3 32.2,44.7 " />
        <polygon
           style="opacity:0.75"
           id="polygon80"
           points="34.4,42.2 32.2,44.7 32.3,36.7 " />
        <path
           style="opacity:0.7"
           inkscape:connector-curvature="0"
           id="path82"
           d="M 39.6,43.3 C 38,45.1 36.3,46.7 34.3,48 l -2.1,-3.4 7.4,-1.3 z" />
        <path
           style="opacity:0.7"
           inkscape:connector-curvature="0"
           id="path84"
           d="m 32.2,44.7 -3,-4.8 c 1.2,-0.8 2.2,-1.9 3.1,-3.1 l -0.1,7.9 z" />
        <path
           style="opacity:0.9"
           inkscape:connector-curvature="0"
           id="path86"
           d="m 34.3,48.1 c -0.7,0.5 -1.5,0.9 -2.2,1.4 -1.3,0.8 -2.8,1.3 -4.3,1.8 l -4.4,-5.7 10.9,2.5 z" />
        <polygon
           style="opacity:0.95"
           id="polygon88"
           points="10.6,33.3 7.8,22.3 2.7,28.5 " />
        <polygon
           style="opacity:0.9"
           id="polygon90"
           points="31.9,7.4 26.5,1.1 32.4,16 " />
        <path
           style="opacity:0.85"
           inkscape:connector-curvature="0"
           id="path92"
           d="m 6.9,6.6 15.5,4.1 c -4.5,-0.1 -7.8,1.4 -9.9,4.4 L 6.9,6.6 Z" />
      </g>
    </g>
    <text
       xml:space="preserve"
       style="font-style:normal;font-weight:normal;font-size:34.54055786px;line-height:125%;font-family:sans-serif;text-align:center;letter-spacing:0px;word-spacing:0px;text-anchor:middle;fill:#000000;fill-opacity:1;stroke:none;stroke-width:1px;stroke-linecap:butt;stroke-linejoin:miter;stroke-opacity:1"
       x="131.50441"
       y="109.03436"
       id="text3469"
       sodipodi:linespacing="125%"
       transform="matrix(0.99850671,-0.05462913,0.05462913,0.99850671,0,0)"><tspan
         sodipodi:role="line"
         id="tspan3471"
         x="131.50441"
         y="109.03436"
         style="font-style:normal;font-variant:normal;font-weight:normal;font-stretch:normal;font-family:'Segoe Script';-inkscape-font-specification:'Segoe Script';fill:#5570f5;fill-opacity:1">curated</tspan></text>
  </g>
</svg>
