<?xml version="1.0" encoding="UTF-8"?>
<svg width="250px" height="105px" viewBox="0 0 250 105" version="1.1" xmlns="http://www.w3.org/2000/svg" xmlns:xlink="http://www.w3.org/1999/xlink">
    <!-- Generator: Sketch 47 (45396) - http://www.bohemiancoding.com/sketch -->
    <title>Group</title>
    <desc>Created with Sketch.</desc>
    <defs></defs>
    <g id="Page-1" stroke="none" stroke-width="1" fill="none" fill-rule="evenodd">
        <g id="Group">
            <g id="clarity-marketplace-logo" fill-rule="nonzero">
                <path d="M48.1,0 L57.9,0 L57.9,57.4 C57.9,59.7 59.1,60.8 61.6,60.8 L65,60.8 L65,70.2 L60.6,70.2 C57,70.2 54.1,69.3 51.8,67.5 C49.4,65.6 48.1,62.5 48.1,58.1 L48.1,0 L48.1,0 Z" id="Shape" fill="#666363" opacity="0.7"></path>
                <path d="M99.2,65.9 L99,65.9 C98.1,67.6 96.7,68.9 94.8,69.7 C92.9,70.5 90.3,71 87,71 C81.6,70.9 77.4,69.5 74.4,66.6 C71.3,63.8 69.8,60.2 69.8,55.8 C69.8,51.6 71.1,48.1 73.8,45.3 C76.5,42.5 80.4,41 85.6,41 L99.1,41 L99.1,35.7 C99.2,31.3 95.8,29.1 89.1,29.3 C86.7,29.3 84.7,29.6 83.3,30.1 C81.8,30.7 80.7,31.7 79.8,33.2 L72.1,27.2 C75.8,22.2 81.3,19.8 88.5,19.9 C94.6,19.8 99.5,21 103.2,23.5 C106.9,26 108.7,30.3 108.8,36.4 L108.8,70.6 L99,70.6 L99,65.9 L99.2,65.9 Z M99.2,49.1 L87.4,49.1 C81.7,49.2 78.9,51.2 78.9,55.1 C78.9,56.8 79.6,58.3 81.1,59.4 C82.5,60.7 84.8,61.4 88.1,61.4 C92.2,61.5 95.1,61 96.8,59.9 C98.3,58.8 99.1,56.4 99.1,52.7 L99.1,49.1 L99.2,49.1 Z" id="Shape" fill="#666363" opacity="0.7"></path>
                <path d="M123.2,20.2 L133,20.2 L133,25.5 L133.2,25.5 C136.4,21.5 140.6,19.6 145.9,19.6 C149.8,19.7 153.2,20.9 156.1,23.4 L149,32.1 C146.9,30.4 144.8,29.6 142.6,29.6 C140.1,29.6 138,30.4 136.2,32.1 C134.2,33.7 133.2,36.4 133.1,40.1 L133.1,70.3 L123.3,70.3 L123.3,20.2 L123.2,20.2 Z" id="Shape" fill="#666363" opacity="0.7"></path>
                <path d="M162.1,0 L171.9,0 L171.9,10 L162.1,10 L162.1,0 Z M162.1,20.2 L171.9,20.2 L171.9,70.2 L162.1,70.2 L162.1,20.2 Z" id="Shape" fill="#666363" opacity="0.7"></path>
                <path d="M186.1,5 L195.9,5 L195.9,20.2 L203,20.2 L203,28 L195.9,28 L195.9,57.2 C195.8,59.7 197,61 199.4,60.9 L203.1,60.9 L203.1,70.3 L198,70.3 C194.6,70.3 191.8,69.2 189.6,67 C187.4,64.9 186.2,61.9 186.2,57.9 L186.2,28 L181.3,28 L181.3,20.3 L186.2,20.3 L186.2,5 L186.1,5 Z" id="Shape" fill="#666363" opacity="0.7"></path>
                <path d="M206.1,20.2 L216.5,20.2 L228,55.3 L228.2,55.3 L239.7,20.2 L250,20.2 L229.1,80.6 C227.8,84.4 225.9,87 223.5,88.4 C221.1,89.8 218.4,90.5 215.3,90.5 L212.1,90.5 L212.1,81.1 L215,81.1 C216.3,81.1 217.5,80.7 218.6,80 C219.7,79.3 220.5,78.2 220.9,76.7 L223.6,68.3 L206.1,20.2 Z" id="Shape" fill="#666363" opacity="0.7"></path>
                <g id="Shape" transform="translate(0.000000, 19.000000)" fill="#4260F4">
                    <polygon opacity="0.8" points="31.9 7.4 32.4 16 39.6 9.4"></polygon>
                    <path d="M31.9,7.4 L26.4,1.1 C28.4,1.5 30.3,2.1 32,3.1 C34.9,4.7 37.4,6.8 39.5,9.4 L31.9,7.4 Z" opacity="0.7"></path>
                    <path d="M26.5,1.1 L32.4,16 C29.9,12.6 26.6,10.9 22.5,10.7 L26.5,1.1 Z" opacity="0.8"></path>
                    <path d="M16.9,5.5 L17.8,1 C19.2,0.7 20.6,0.6 22.1,0.6 C23.6,0.6 25.1,0.8 26.5,1 L16.9,5.5 Z" opacity="0.8"></path>
                    <polygon opacity="0.7" points="16.9 5.5 26.5 1.1 22.5 10.7"></polygon>
                    <path d="M6.9,6.6 C10.1,3.6 13.7,1.8 17.7,1 L16.8,5.5 L6.9,6.6 Z" opacity="0.8"></path>
                    <polygon opacity="0.9" points="6.9 6.6 16.8 5.5 22.4 10.7"></polygon>
                    <polygon opacity="0.7" points="4.5 21 6.9 6.6 12.5 15.1"></polygon>
                    <path d="M0.8,18.4 C1.8,13.3 3.9,9.3 7,6.6 L4.5,21 L0.8,18.4 Z" opacity="0.9"></path>
                    <path d="M7.8,22.3 L12.5,15.1 C10.7,17.7 9.8,21.5 9.7,26.4 C9.7,29 10,31.3 10.6,33.3 L7.8,22.3 Z" opacity="0.7"></path>
                    <polygon opacity="0.8" points="4.5 21 12.5 15.1 7.8 22.3"></polygon>
                    <polygon opacity="0.9" points="2.7 28.5 4.5 21 7.8 22.3"></polygon>
                    <path d="M1.1,35.5 C0.4,32.8 0.1,29.8 0,26.4 C0,23.5 0.3,20.8 0.8,18.4 L4.5,21 L1.1,35.5 Z" opacity="0.85"></path>
                    <polygon opacity="0.85" points="1.1 35.5 2.8 28.5 10.6 44.6"></polygon>
                    <polygon opacity="0.95" points="2.7 28.5 10.6 33.2 10.5 44.5"></polygon>
                    <path d="M6.9,45.9 C4.1,43.4 2.1,39.9 1,35.5 L10.5,44.6 L6.9,45.9 Z" opacity="0.8"></path>
                    <path d="M10.5,44.6 L10.6,33.3 C10.6,33.3 14.6,47.6 14.6,47.6 L10.5,44.6 Z" opacity="0.75"></path>
                    <polygon opacity="0.9" points="6.9 45.9 10.5 44.6 14.6 47.6"></polygon>
                    <path d="M14.7,47.6 C14.7,47.6 10.2,31.6 10.8,33.7 C12.2,38.3 15,41 19.4,41.7 L14.7,47.6 Z" opacity="0.7"></path>
                    <path d="M22.1,52 C16.4,52 11.3,50 7,46 L14.7,47.7 L22.1,52 Z" opacity="0.95"></path>
                    <polygon opacity="0.8" points="22.1 52 14.7 47.6 19.3 41.7"></polygon>
                    <polygon opacity="0.75" points="22.1 52 19.3 41.7 23.4 45.4"></polygon>
                    <path d="M23.4,45.4 L19.3,41.7 C20.3,41.9 21.3,41.9 22.4,41.9 C25,41.9 27.2,41.2 29.2,39.8 L23.4,45.4 Z" opacity="0.8"></path>
                    <path d="M27.8,51.2 C26,51.7 24.1,52 22.1,52 L23.5,45.5 L27.8,51.2 Z" opacity="0.95"></path>
                    <polygon opacity="0.7" points="34.3 48.1 23.4 45.5 29.2 39.9"></polygon>
                    <polygon opacity="0.7" points="39.6 43.3 34.4 42.2 32.3 36.7"></polygon>
                    <polygon opacity="0.85" points="39.6 43.3 32.2 44.7 34.4 42.2"></polygon>
                    <polygon opacity="0.75" points="32.2 44.7 32.3 36.7 34.4 42.2"></polygon>
                    <path d="M39.6,43.3 C38,45.1 36.3,46.7 34.3,48 L32.2,44.6 L39.6,43.3 Z" opacity="0.7"></path>
                    <path d="M32.2,44.7 L29.2,39.9 C30.4,39.1 31.4,38 32.3,36.8 L32.2,44.7 Z" opacity="0.7"></path>
                    <path d="M34.3,48.1 C33.6,48.6 32.8,49 32.1,49.5 C30.8,50.3 29.3,50.8 27.8,51.3 L23.4,45.6 L34.3,48.1 Z" opacity="0.9"></path>
                    <polygon opacity="0.95" points="7.8 22.3 2.7 28.5 10.6 33.3"></polygon>
                    <polygon opacity="0.9" points="26.5 1.1 32.4 16 31.9 7.4"></polygon>
                    <path d="M6.9,6.6 L22.4,10.7 C17.9,10.6 14.6,12.1 12.5,15.1 L6.9,6.6 Z" opacity="0.85"></path>
                </g>
            </g>
            <path d="M65.3378906,100 L62.359375,100 L62.359375,93.6230469 C62.359375,92.8352825 62.2275404,92.2444681 61.9638672,91.8505859 C61.700194,91.4567038 61.2851591,91.2597656 60.71875,91.2597656 C59.9570274,91.2597656 59.4036476,91.5397107 59.0585938,92.0996094 C58.7135399,92.659508 58.5410156,93.5807228 58.5410156,94.8632812 L58.5410156,100 L55.5625,100 L55.5625,89.0820312 L57.8378906,89.0820312 L58.2382812,90.4785156 L58.4042969,90.4785156 C58.6972671,89.977211 59.1204399,89.5849624 59.6738281,89.3017578 C60.2272163,89.0185533 60.8619756,88.8769531 61.578125,88.8769531 C63.2122478,88.8769531 64.3190075,89.410802 64.8984375,90.4785156 L65.1621094,90.4785156 C65.4550796,89.9707006 65.8863904,89.5768243 66.4560547,89.296875 C67.025719,89.0169257 67.6686162,88.8769531 68.3847656,88.8769531 C69.621751,88.8769531 70.557614,89.1943328 71.1923828,89.8291016 C71.8271516,90.4638704 72.1445312,91.4811128 72.1445312,92.8808594 L72.1445312,100 L69.15625,100 L69.15625,93.6230469 C69.15625,92.8352825 69.0244154,92.2444681 68.7607422,91.8505859 C68.497069,91.4567038 68.0820341,91.2597656 67.515625,91.2597656 C66.7864547,91.2597656 66.2412127,91.5201797 65.8798828,92.0410156 C65.5185529,92.5618516 65.3378906,93.3886662 65.3378906,94.5214844 L65.3378906,100 Z M82.1347656,100 L81.5585938,98.515625 L81.4804688,98.515625 C80.9791642,99.1471386 80.4632188,99.5849597 79.9326172,99.8291016 C79.4020156,100.073243 78.7102907,100.195312 77.8574219,100.195312 C76.8092396,100.195312 75.9840525,99.8958363 75.3818359,99.296875 C74.7796194,98.6979137 74.4785156,97.8450576 74.4785156,96.7382812 C74.4785156,95.5794213 74.883785,94.7249376 75.6943359,94.1748047 C76.5048869,93.6246717 77.7272054,93.3203128 79.3613281,93.2617188 L81.2558594,93.203125 L81.2558594,92.7246094 C81.2558594,91.617833 80.6894588,91.0644531 79.5566406,91.0644531 C78.6842404,91.0644531 77.6588601,91.3281224 76.4804688,91.8554688 L75.4941406,89.84375 C76.7506573,89.1861946 78.1438726,88.8574219 79.6738281,88.8574219 C81.1386792,88.8574219 82.2617148,89.1764291 83.0429688,89.8144531 C83.8242227,90.4524771 84.2148438,91.4225195 84.2148438,92.7246094 L84.2148438,100 L82.1347656,100 Z M81.2558594,94.9414062 L80.1035156,94.9804688 C79.2376259,95.0065105 78.5931011,95.162759 78.1699219,95.4492188 C77.7467427,95.7356785 77.5351562,96.1718721 77.5351562,96.7578125 C77.5351562,97.5976604 78.0169223,98.0175781 78.9804688,98.0175781 C79.6705764,98.0175781 80.2223287,97.8190124 80.6357422,97.421875 C81.0491557,97.0247376 81.2558594,96.4973991 81.2558594,95.8398438 L81.2558594,94.9414062 Z M93.375,88.8769531 C93.7786479,88.8769531 94.113931,88.9062497 94.3808594,88.9648438 L94.15625,91.7578125 C93.9153634,91.692708 93.6223976,91.6601562 93.2773438,91.6601562 C92.3268182,91.6601562 91.5862657,91.9042944 91.0556641,92.3925781 C90.5250625,92.8808618 90.2597656,93.5644487 90.2597656,94.4433594 L90.2597656,100 L87.28125,100 L87.28125,89.0820312 L89.5371094,89.0820312 L89.9765625,90.9179688 L90.1230469,90.9179688 C90.4615902,90.3059865 90.9189424,89.8128274 91.4951172,89.4384766 C92.0712919,89.0641257 92.6979133,88.8769531 93.375,88.8769531 Z M99.2246094,94.0625 L100.523438,92.4023438 L103.580078,89.0820312 L106.939453,89.0820312 L102.603516,93.8183594 L107.203125,100 L103.765625,100 L100.621094,95.5761719 L99.3417969,96.6015625 L99.3417969,100 L96.3632812,100 L96.3632812,84.8046875 L99.3417969,84.8046875 L99.3417969,91.5820312 L99.1855469,94.0625 L99.2246094,94.0625 Z M112.886719,90.9960938 C112.255205,90.9960938 111.760418,91.1962871 111.402344,91.5966797 C111.044269,91.9970723 110.839193,92.5651005 110.787109,93.3007812 L114.966797,93.3007812 C114.953776,92.5651005 114.761721,91.9970723 114.390625,91.5966797 C114.019529,91.1962871 113.518232,90.9960938 112.886719,90.9960938 Z M113.306641,100.195312 C111.548819,100.195312 110.175135,99.7102913 109.185547,98.7402344 C108.195959,97.7701774 107.701172,96.3964933 107.701172,94.6191406 C107.701172,92.7897044 108.158524,91.3753305 109.073242,90.3759766 C109.98796,89.3766226 111.252596,88.8769531 112.867188,88.8769531 C114.410164,88.8769531 115.611324,89.3164019 116.470703,90.1953125 C117.330082,91.0742231 117.759766,92.2884037 117.759766,93.8378906 L117.759766,95.2832031 L110.71875,95.2832031 C110.751302,96.1295615 111.001951,96.7903622 111.470703,97.265625 C111.939455,97.7408878 112.597001,97.9785156 113.443359,97.9785156 C114.100915,97.9785156 114.722653,97.9101569 115.308594,97.7734375 C115.894534,97.6367181 116.506507,97.4186213 117.144531,97.1191406 L117.144531,99.4238281 C116.623695,99.6842461 116.06706,99.8779291 115.474609,100.004883 C114.882158,100.131837 114.159509,100.195312 113.306641,100.195312 Z M124.78125,97.8222656 C125.302086,97.8222656 125.92708,97.7083345 126.65625,97.4804688 L126.65625,99.6972656 C125.914059,100.029299 125.00261,100.195312 123.921875,100.195312 C122.730463,100.195312 121.862958,99.8942087 121.319336,99.2919922 C120.775713,98.6897756 120.503906,97.7864644 120.503906,96.5820312 L120.503906,91.3183594 L119.078125,91.3183594 L119.078125,90.0585938 L120.71875,89.0625 L121.578125,86.7578125 L123.482422,86.7578125 L123.482422,89.0820312 L126.539062,89.0820312 L126.539062,91.3183594 L123.482422,91.3183594 L123.482422,96.5820312 C123.482422,97.0052104 123.601236,97.3177073 123.838867,97.5195312 C124.076499,97.7213552 124.390623,97.8222656 124.78125,97.8222656 Z M134.859375,100.195312 C133.576817,100.195312 132.570967,99.7298224 131.841797,98.7988281 L131.685547,98.7988281 C131.789714,99.710291 131.841797,100.237629 131.841797,100.380859 L131.841797,104.804688 L128.863281,104.804688 L128.863281,89.0820312 L131.285156,89.0820312 L131.705078,90.4980469 L131.841797,90.4980469 C132.538415,89.4173123 133.570306,88.8769531 134.9375,88.8769531 C136.226569,88.8769531 137.235673,89.374995 137.964844,90.3710938 C138.694014,91.3671925 139.058594,92.7506422 139.058594,94.5214844 C139.058594,95.6868548 138.887697,96.6992145 138.545898,97.5585938 C138.2041,98.417973 137.717451,99.0722634 137.085938,99.5214844 C136.454424,99.9707054 135.712244,100.195312 134.859375,100.195312 Z M133.980469,91.2597656 C133.244788,91.2597656 132.707684,91.4860003 132.369141,91.9384766 C132.030597,92.3909528 131.854818,93.1380156 131.841797,94.1796875 L131.841797,94.5019531 C131.841797,95.673834 132.015949,96.5136693 132.364258,97.0214844 C132.712567,97.5292994 133.264319,97.7832031 134.019531,97.7832031 C135.354173,97.7832031 136.021484,96.6829537 136.021484,94.4824219 C136.021484,93.4081978 135.857098,92.6025417 135.52832,92.0654297 C135.199543,91.5283176 134.683597,91.2597656 133.980469,91.2597656 Z M144.498047,100 L141.519531,100 L141.519531,84.8046875 L144.498047,84.8046875 L144.498047,100 Z M154.556641,100 L153.980469,98.515625 L153.902344,98.515625 C153.401039,99.1471386 152.885094,99.5849597 152.354492,99.8291016 C151.823891,100.073243 151.132166,100.195312 150.279297,100.195312 C149.231115,100.195312 148.405927,99.8958363 147.803711,99.296875 C147.201494,98.6979137 146.900391,97.8450576 146.900391,96.7382812 C146.900391,95.5794213 147.30566,94.7249376 148.116211,94.1748047 C148.926762,93.6246717 150.14908,93.3203128 151.783203,93.2617188 L153.677734,93.203125 L153.677734,92.7246094 C153.677734,91.617833 153.111334,91.0644531 151.978516,91.0644531 C151.106115,91.0644531 150.080735,91.3281224 148.902344,91.8554688 L147.916016,89.84375 C149.172532,89.1861946 150.565748,88.8574219 152.095703,88.8574219 C153.560554,88.8574219 154.68359,89.1764291 155.464844,89.8144531 C156.246098,90.4524771 156.636719,91.4225195 156.636719,92.7246094 L156.636719,100 L154.556641,100 Z M153.677734,94.9414062 L152.525391,94.9804688 C151.659501,95.0065105 151.014976,95.162759 150.591797,95.4492188 C150.168618,95.7356785 149.957031,96.1718721 149.957031,96.7578125 C149.957031,97.5976604 150.438797,98.0175781 151.402344,98.0175781 C152.092451,98.0175781 152.644204,97.8190124 153.057617,97.421875 C153.471031,97.0247376 153.677734,96.4973991 153.677734,95.8398438 L153.677734,94.9414062 Z M164.136719,100.195312 C160.738264,100.195312 159.039062,98.3300968 159.039062,94.5996094 C159.039062,92.7441313 159.501297,91.3265023 160.425781,90.3466797 C161.350265,89.3668571 162.675122,88.8769531 164.400391,88.8769531 C165.663418,88.8769531 166.796219,89.1243465 167.798828,89.6191406 L166.919922,91.9238281 C166.45117,91.7350251 166.014976,91.5804042 165.611328,91.4599609 C165.20768,91.3395176 164.804038,91.2792969 164.400391,91.2792969 C162.850904,91.2792969 162.076172,92.3795463 162.076172,94.5800781 C162.076172,96.7155055 162.850904,97.7832031 164.400391,97.7832031 C164.97331,97.7832031 165.503904,97.7067065 165.992188,97.5537109 C166.480471,97.4007154 166.968748,97.16146 167.457031,96.8359375 L167.457031,99.3847656 C166.975258,99.6907567 166.488609,99.9023432 165.99707,100.019531 C165.505531,100.136719 164.88542,100.195312 164.136719,100.195312 Z M174.507812,90.9960938 C173.876299,90.9960938 173.381512,91.1962871 173.023438,91.5966797 C172.665363,91.9970723 172.460287,92.5651005 172.408203,93.3007812 L176.587891,93.3007812 C176.57487,92.5651005 176.382814,91.9970723 176.011719,91.5966797 C175.640623,91.1962871 175.139326,90.9960938 174.507812,90.9960938 Z M174.927734,100.195312 C173.169913,100.195312 171.796229,99.7102913 170.806641,98.7402344 C169.817052,97.7701774 169.322266,96.3964933 169.322266,94.6191406 C169.322266,92.7897044 169.779618,91.3753305 170.694336,90.3759766 C171.609054,89.3766226 172.87369,88.8769531 174.488281,88.8769531 C176.031258,88.8769531 177.232418,89.3164019 178.091797,90.1953125 C178.951176,91.0742231 179.380859,92.2884037 179.380859,93.8378906 L179.380859,95.2832031 L172.339844,95.2832031 C172.372396,96.1295615 172.623045,96.7903622 173.091797,97.265625 C173.560549,97.7408878 174.218095,97.9785156 175.064453,97.9785156 C175.722008,97.9785156 176.343747,97.9101569 176.929688,97.7734375 C177.515628,97.6367181 178.127601,97.4186213 178.765625,97.1191406 L178.765625,99.4238281 C178.244789,99.6842461 177.688154,99.8779291 177.095703,100.004883 C176.503252,100.131837 175.780603,100.195312 174.927734,100.195312 Z" id="marketplace" fill="#939191"></path>
        </g>
    </g>
</svg>