<?xml version="1.0" encoding="UTF-8" standalone="no"?>
<svg
   xmlns:dc="http://purl.org/dc/elements/1.1/"
   xmlns:cc="http://creativecommons.org/ns#"
   xmlns:rdf="http://www.w3.org/1999/02/22-rdf-syntax-ns#"
   xmlns:svg="http://www.w3.org/2000/svg"
   xmlns="http://www.w3.org/2000/svg"
   xmlns:sodipodi="http://sodipodi.sourceforge.net/DTD/sodipodi-0.dtd"
   xmlns:inkscape="http://www.inkscape.org/namespaces/inkscape"
   width="250px"
   height="105px"
   viewBox="0 0 250 105"
   version="1.1"
   id="svg2"
   inkscape:version="0.91 r13725"
   sodipodi:docname="clarity-showcases-logo.svg">
  <metadata
     id="metadata97">
    <rdf:RDF>
      <cc:Work
         rdf:about="">
        <dc:format>image/svg+xml</dc:format>
        <dc:type
           rdf:resource="http://purl.org/dc/dcmitype/StillImage" />
        <dc:title>Group</dc:title>
      </cc:Work>
    </rdf:RDF>
  </metadata>
  <sodipodi:namedview
     pagecolor="#ffffff"
     bordercolor="#666666"
     borderopacity="1"
     objecttolerance="10"
     gridtolerance="10"
     guidetolerance="10"
     inkscape:pageopacity="0"
     inkscape:pageshadow="2"
     inkscape:window-width="1440"
     inkscape:window-height="801"
     id="namedview95"
     showgrid="false"
     inkscape:zoom="2.464"
     inkscape:cx="63.781468"
     inkscape:cy="39.241683"
     inkscape:window-x="2030"
     inkscape:window-y="17"
     inkscape:window-maximized="0"
     inkscape:current-layer="Group" />
  <!-- Generator: Sketch 47 (45396) - http://www.bohemiancoding.com/sketch -->
  <title
     id="title4">Group</title>
  <desc
     id="desc6">Created with Sketch.</desc>
  <defs
     id="defs8" />
  <g
     style="fill:none;fill-rule:evenodd;stroke:none;stroke-width:1"
     id="Group">
    <g
       transform="matrix(0.99719498,-0.07484768,0.07484768,0.99719498,0,0)"
       style="font-style:normal;font-weight:normal;font-size:30px;line-height:125%;font-family:sans-serif;text-align:center;letter-spacing:0px;word-spacing:0px;text-anchor:middle;fill:#74c7a8;fill-opacity:1;stroke:none;stroke-width:0.40000001;stroke-linecap:butt;stroke-linejoin:miter;stroke-miterlimit:4;stroke-dasharray:none;stroke-opacity:1"
       id="text4189">
      <path
         d="m 36.74514,91.339661 q 0,0.146484 -0.102539,0.395507 -0.102539,0.249024 -0.27832,0.541993 -0.175782,0.27832 -0.410157,0.585937 -0.234375,0.292969 -0.498046,0.541992 -0.175782,0.161133 -0.38086,0.38086 -0.205078,0.205078 -0.380859,0.454101 -0.161133,0.234375 -0.27832,0.498047 -0.10254,0.263672 -0.10254,0.498047 0,0.688477 0.249024,1.362305 0.263672,0.659179 0.834961,1.523437 0.263672,0.395508 0.615234,0.893555 0.351563,0.498047 0.703125,1.069338 0.351563,0.55664 0.644531,1.18652 0.292969,0.61524 0.439454,1.25977 1.362304,-1.14258 2.651367,-2.46094 1.303711,-1.333008 2.416992,-2.680665 1.12793,-1.347656 2.021484,-2.62207 0.893555,-1.274414 1.450196,-2.314453 0.234375,-0.424805 0.380859,-0.703125 0.161133,-0.292969 0.292969,-0.46875 0.131836,-0.175781 0.249023,-0.249024 0.131836,-0.07324 0.292969,-0.07324 0.292969,0 0.424805,0.205078 0.131836,0.205079 0.131836,0.571289 0,0.336915 -0.292969,1.069336 -0.27832,0.732422 -0.893555,1.816407 -0.615234,1.069336 -1.59668,2.460937 -0.966796,1.376953 -2.34375,3.032222 -0.761718,0.90821 -1.728515,1.88965 -0.966797,0.9668 -2.021485,1.88965 -1.054687,0.92285 -2.124023,1.74317 -1.069336,0.83496 -2.021484,1.45019 -0.9375,0.62988 -1.713868,0.99609 -0.761718,0.36622 -1.201171,0.36622 -0.234375,0 -0.454102,-0.14649 -0.205078,-0.13183 -0.366211,-0.33691 -0.146484,-0.19043 -0.249023,-0.41016 -0.08789,-0.21973 -0.08789,-0.39551 0,-0.32226 0.146484,-0.57129 0.161133,-0.24902 0.410157,-0.4541 0.263672,-0.20508 0.585937,-0.36621 0.336914,-0.16113 0.673828,-0.30762 0.219727,-0.0879 0.498047,-0.19043 0.27832,-0.10253 0.571289,-0.20507 0.292969,-0.11719 0.556641,-0.24903 0.27832,-0.14648 0.454101,-0.30761 0.307618,-0.29297 0.483399,-0.67383 0.175781,-0.39551 0.175781,-0.80567 0,-0.23437 -0.161133,-0.60058 -0.161133,-0.36621 -0.424804,-0.77637 -0.263672,-0.4248 -0.585938,-0.87891 -0.322266,-0.46875 -0.644531,-0.908199 -0.322266,-0.454101 -0.615235,-0.849609 -0.27832,-0.410156 -0.454101,-0.717774 -0.336914,-0.55664 -0.585938,-1.21582 -0.249023,-0.65918 -0.249023,-1.362305 0,-0.249023 0.07324,-0.600585 0.07324,-0.366211 0.19043,-0.747071 0.117187,-0.380859 0.234375,-0.732422 0.131836,-0.351562 0.249023,-0.585937 0.04395,-0.07324 0.19043,-0.307617 0.161133,-0.234375 0.380859,-0.527344 0.234375,-0.292969 0.512696,-0.615234 0.27832,-0.336915 0.55664,-0.615235 0.292969,-0.27832 0.556641,-0.454101 0.27832,-0.175782 0.498047,-0.175782 0.615234,0 1.02539,0.263672 0.424805,0.263672 0.424805,0.717774 z"
         style="font-style:normal;font-variant:normal;font-weight:normal;font-stretch:normal;font-size:30px;font-family:'Segoe Script';-inkscape-font-specification:'Segoe Script';fill:#74c7a8;fill-opacity:1;stroke:none;stroke-width:0.40000001;stroke-miterlimit:4;stroke-dasharray:none;stroke-opacity:1"
         id="path4194" />
      <path
         d="m 71.066429,95.997864 q 0,0.307617 -0.439453,0.966797 -0.161133,0.263672 -0.410156,0.585937 -0.249024,0.322266 -0.527344,0.65918 -0.263672,0.322265 -0.527344,0.615234 -0.263672,0.292969 -0.46875,0.498047 -0.849609,0.864261 -1.801758,1.655271 -0.952148,0.79102 -1.977539,1.4209 -1.010742,0.61524 -2.109375,0.99609 -1.083984,0.38086 -2.211914,0.39551 -0.864257,0 -1.538086,-0.32226 -0.659179,-0.32227 -1.040039,-1.04004 -0.380859,-0.71778 -0.571289,-1.61133 -0.190429,-0.893555 -0.307617,-1.918946 -0.01465,-0.161132 -0.04395,-0.483398 -0.0293,-0.322266 -0.07324,-0.703125 -0.0293,-0.395508 -0.08789,-0.805664 -0.05859,-0.410156 -0.131836,-0.74707 -0.07324,-0.336914 -0.175781,-0.541993 -0.08789,-0.219726 -0.205078,-0.219726 -0.454102,0 -1.245118,0.615234 -0.791015,0.600586 -1.728515,1.59668 -0.9375,0.981445 -1.918945,2.226562 -0.981446,1.245116 -1.831055,2.534176 -0.74707,1.11329 -1.362305,2.24122 -0.600586,1.11328 -1.054687,1.94824 -0.249024,0.38086 -0.527344,0.52734 -0.27832,0.16113 -0.380859,0.16113 -0.234375,0 -0.483399,-0.11718 -0.234375,-0.10254 -0.439453,-0.27832 -0.19043,-0.17579 -0.322266,-0.41016 -0.117187,-0.21973 -0.117187,-0.43945 0,-0.19043 0.05859,-0.61524 0.07324,-0.43945 0.161132,-0.98144 0.08789,-0.542 0.175782,-1.11328 0.08789,-0.58594 0.146484,-1.08399 0.102539,-0.9668 0.234375,-2.12402 0.131836,-1.157229 0.249023,-2.329104 0.117188,-1.186523 0.219727,-2.314453 0.102539,-1.12793 0.161133,-2.036133 0.01465,-0.292968 0.04395,-0.776367 0.0293,-0.483398 0.05859,-1.054687 0.0293,-0.585938 0.05859,-1.230469 0.0293,-0.644531 0.05859,-1.245117 0.0293,-0.615235 0.04395,-1.142578 0.0293,-0.541993 0.04395,-0.908204 0.01465,-0.410156 0.04395,-0.761718 0.04395,-0.351563 0.102539,-0.688477 0.07324,-0.351562 0.19043,-0.688476 0.131836,-0.351563 0.322266,-0.761719 0.05859,-0.131836 0.190429,-0.292969 0.131836,-0.161133 0.292969,-0.292969 0.175781,-0.131836 0.366211,-0.219726 0.205078,-0.102539 0.410156,-0.102539 0.424805,0 0.761719,0.336914 0.351563,0.336914 0.351563,0.9375 0,0.190429 -0.07324,0.512695 -0.05859,0.322266 -0.146484,0.673828 -0.08789,0.336914 -0.175781,0.65918 -0.07324,0.307617 -0.102539,0.46875 -0.117188,0.600586 -0.205078,1.376953 -0.08789,0.776367 -0.175782,1.582031 -0.07324,0.805664 -0.131836,1.59668 -0.05859,0.776367 -0.102539,1.391602 -0.04395,0.703125 -0.117187,1.318359 -0.05859,0.615234 -0.131836,1.230469 -0.05859,0.600586 -0.117188,1.230468 -0.05859,0.615235 -0.117187,1.333008 -0.102539,1.083985 -0.234375,1.918946 -0.131836,0.820312 -0.131836,1.406252 0,0.0879 0.08789,0.20508 0.102539,0.11718 0.175781,0.11718 l 0.05859,0 q 0.131836,-0.16113 0.336914,-0.4834 0.205078,-0.32226 0.46875,-0.70312 0.263672,-0.38086 0.541992,-0.791016 0.292969,-0.424805 0.571289,-0.776367 0.27832,-0.351563 0.600586,-0.761719 0.336914,-0.424805 0.688476,-0.849609 0.366211,-0.424805 0.732422,-0.84961 0.38086,-0.424804 0.732422,-0.791015 0.454102,-0.454102 1.010742,-0.952149 0.556641,-0.498047 1.157227,-0.908203 0.615234,-0.410156 1.230469,-0.673828 0.615234,-0.263672 1.171875,-0.263672 0.102539,0 0.263672,0.05859 0.175781,0.05859 0.336914,0.175781 0.175781,0.102539 0.322265,0.263672 0.146485,0.146484 0.219727,0.351563 0.292969,0.791015 0.424804,1.582031 0.131836,0.791015 0.234375,1.669922 0.08789,0.74707 0.19043,1.538086 0.102539,0.791015 0.263672,1.435547 0.161133,0.644532 0.410156,1.054692 0.263672,0.41015 0.65918,0.41015 1.801758,0 3.457031,-0.80566 0.878906,-0.42481 1.508789,-0.820315 0.644532,-0.395508 1.186524,-0.820313 0.55664,-0.424804 1.098633,-0.9375 0.541992,-0.512695 1.259765,-1.186523 1.420899,-1.303711 1.655274,-1.303711 0.219726,0 0.219726,0.600586 z"
         style="font-style:normal;font-variant:normal;font-weight:normal;font-stretch:normal;font-size:30px;font-family:'Segoe Script';-inkscape-font-specification:'Segoe Script';fill:#74c7a8;fill-opacity:1;stroke:none;stroke-width:0.40000001;stroke-miterlimit:4;stroke-dasharray:none;stroke-opacity:1"
         id="path4196" />
      <path
         d="m 89.025414,92.701965 q 0,0.249024 -0.175782,0.541993 -0.175781,0.292968 -0.454101,0.600585 -0.278321,0.292969 -0.629883,0.585938 -0.351563,0.27832 -0.703125,0.527344 -0.351563,0.234375 -0.673828,0.424804 -0.307617,0.175782 -0.512696,0.263672 -0.380859,0.161133 -1.010742,0.292969 -0.615234,0.117188 -1.289062,0.205078 -0.673828,0.08789 -1.31836,0.146485 -0.644531,0.04394 -1.083984,0.04394 -0.175781,0 -0.483398,-0.05859 -0.307618,-0.05859 -0.629883,-0.146484 -0.322266,-0.08789 -0.615235,-0.19043 -0.27832,-0.117187 -0.410156,-0.234375 0.131836,0.556641 0.234375,1.12793 0.102539,0.55664 0.102539,1.157226 0,0.263672 -0.07324,0.644532 -0.05859,0.380859 -0.175781,0.776367 -0.102539,0.380859 -0.234375,0.74707 -0.131836,0.35156 -0.278321,0.58594 -0.380859,0.64453 -0.791015,1.17187 -0.395508,0.52735 -0.908203,0.98145 -0.498047,0.43945 -1.12793,0.83496 -0.629883,0.39551 -1.450195,0.76172 -0.878907,0.38086 -1.772461,0.54199 -0.878906,0.14648 -1.831055,0.14648 -0.600586,0 -1.069336,-0.35156 -0.46875,-0.35156 -0.791015,-0.9375 -0.322266,-0.60058 -0.498047,-1.37695 -0.161133,-0.77637 -0.161133,-1.62598 0,-0.21972 0.0293,-0.54199 0.04394,-0.32227 0.102539,-0.65918 0.07324,-0.336914 0.146484,-0.644531 0.07324,-0.307617 0.146485,-0.527344 0.205078,-0.615234 0.585937,-1.40625 0.380859,-0.791016 0.893555,-1.611328 0.512695,-0.834961 1.142578,-1.625977 0.629883,-0.805664 1.318359,-1.435547 0.688477,-0.629882 1.435547,-1.010742 0.74707,-0.380859 1.494141,-0.380859 0.249023,0 0.395508,0.07324 0.161132,0.07324 0.263671,0.19043 0.117188,0.117187 0.205079,0.249023 0.08789,0.131836 0.205078,0.263672 0.04395,0.07324 0.131836,0.07324 0.117187,0 0.292968,-0.05859 0.175782,-0.05859 0.395508,-0.05859 0.27832,0 0.688477,0.366211 0.410156,0.351562 0.849609,0.791015 0.454102,0.424805 0.893555,0.791016 0.454101,0.351562 0.805664,0.351562 0.395508,0 0.849609,-0.01465 0.454102,-0.01465 0.922852,-0.04394 0.46875,-0.04395 0.922851,-0.102539 0.454102,-0.05859 0.834961,-0.131836 0.102539,-0.0293 0.483399,-0.131836 0.380859,-0.102539 0.878906,-0.234375 0.512695,-0.146485 1.069336,-0.307617 0.571289,-0.161133 1.054687,-0.292969 0.483399,-0.146485 0.791016,-0.234375 0.322266,-0.08789 0.351563,-0.08789 0.08789,0 0.161132,0.04395 0.07324,0.04394 0.07324,0.161132 z m -11.425782,2.34375 q -0.08789,-0.292968 -0.351562,-0.571289 -0.249024,-0.27832 -0.585938,-0.498047 -0.322265,-0.219726 -0.688476,-0.351562 -0.366211,-0.146484 -0.688477,-0.146484 -0.263672,0 -0.512695,0.08789 -0.249024,0.08789 -0.498047,0.234375 -0.234375,0.131836 -0.454102,0.307617 -0.219726,0.161133 -0.410156,0.307618 -0.571289,0.483398 -1.098633,1.362304 -0.512695,0.864258 -0.908203,1.875 -0.380859,0.996094 -0.615234,1.992188 -0.234375,0.996095 -0.234375,1.728515 0,0.32227 0.102539,0.62988 0.117187,0.29297 0.322266,0.52735 0.205078,0.21972 0.483398,0.36621 0.27832,0.13183 0.615234,0.13183 0.878907,0 1.625977,-0.30761 0.74707,-0.32227 1.347656,-0.86426 0.615235,-0.55664 1.083985,-1.31836 0.46875,-0.761719 0.791015,-1.640626 0.322266,-0.893554 0.483399,-1.875 0.175781,-0.981445 0.190429,-1.977539 z"
         style="font-style:normal;font-variant:normal;font-weight:normal;font-stretch:normal;font-size:30px;font-family:'Segoe Script';-inkscape-font-specification:'Segoe Script';fill:#74c7a8;fill-opacity:1;stroke:none;stroke-width:0.40000001;stroke-miterlimit:4;stroke-dasharray:none;stroke-opacity:1"
         id="path4198" />
      <path
         d="m 108.14162,93.639465 q -0.4541,0.673828 -0.80566,1.274414 -0.35156,0.600586 -0.64453,1.215821 -0.29297,0.615234 -0.57129,1.303711 -0.26367,0.673828 -0.57129,1.508789 -0.23437,0.659179 -0.49805,1.4502 -0.24902,0.79101 -0.51269,1.59667 -0.24902,0.80567 -0.5127,1.56739 -0.24902,0.74707 -0.49804,1.33301 -0.24903,0.57128 -0.4834,0.92285 -0.21973,0.35156 -0.42481,0.35156 -0.79101,0 -1.40625,-0.26367 -0.60058,-0.24903 -1.06933,-0.80567 -0.58594,-0.67382 -1.025393,-1.61132 -0.439453,-0.95215 -0.820313,-1.94825 -0.36621,-1.01074 -0.717773,-1.948239 -0.336914,-0.952148 -0.732422,-1.625977 -0.175781,0.04395 -0.410156,0.336914 -0.219727,0.292969 -0.46875,0.747071 -0.234375,0.439453 -0.498047,0.996091 -0.263672,0.54199 -0.512695,1.08399 -0.234375,0.52734 -0.46875,1.02539 -0.219727,0.4834 -0.395508,0.80566 -1.201172,2.22656 -1.977539,3.35449 -0.776367,1.14258 -1.245117,1.14258 -0.46875,0 -0.908203,-0.41015 -0.424805,-0.39551 -0.820313,-1.09864 -0.380859,-0.68847 -0.732422,-1.61133 -0.351562,-0.92285 -0.644531,-1.96289 -0.292969,-1.04003 -0.541992,-2.13867 -0.249024,-1.098631 -0.439453,-2.13867 -0.131836,-0.820312 -0.234375,-1.728515 -0.08789,-0.922852 -0.08789,-1.611328 0,-0.38086 0.0293,-0.644532 0.04394,-0.263672 0.117187,-0.366211 0.249024,-0.336914 0.395508,-0.571289 0.161133,-0.234375 0.307617,-0.380859 0.146485,-0.146484 0.307618,-0.219727 0.175781,-0.07324 0.454101,-0.102539 0.0293,0 0.04394,0 0.01465,-0.01465 0.04395,-0.01465 0.234375,0 0.439453,0.131836 0.219726,0.131836 0.380859,0.336914 0.161133,0.19043 0.249024,0.410156 0.102539,0.219727 0.102539,0.395508 l 0,0.05859 q -0.04395,0.46875 -0.08789,0.849609 -0.04395,0.366211 -0.08789,0.820313 -0.0293,0.454101 -0.05859,1.069336 -0.0293,0.600585 -0.0293,1.538085 0,0.336915 0.102539,0.893555 0.117187,0.541992 0.292969,1.171872 0.175781,0.61524 0.395507,1.25977 0.234375,0.62988 0.46875,1.14258 0.234375,0.51269 0.454102,0.83496 0.219727,0.32226 0.395508,0.32226 0.146484,0 0.410156,-0.35156 0.263672,-0.36621 0.600586,-0.95215 0.351563,-0.60058 0.74707,-1.3623 0.410157,-0.77637 0.820313,-1.582033 0.424805,-0.820313 0.834961,-1.611329 0.424804,-0.791015 0.805664,-1.435546 0.19043,-0.336914 0.424805,-0.776368 0.234375,-0.439453 0.498046,-0.893554 0.278321,-0.454102 0.585938,-0.84961 0.307617,-0.410156 0.644531,-0.673828 0.263672,0.01465 0.483399,0.117188 0.175781,0.08789 0.322265,0.292968 0.161133,0.205079 0.161133,0.57129 0,0.07324 0,0.161132 0,0.08789 -0.0293,0.175782 -0.04394,0.263671 -0.04394,0.571289 -0.01465,0.805664 0.249023,1.845703 0.278321,1.040039 0.717774,2.109375 0.263672,0.644531 0.600584,1.333011 0.33692,0.67382 0.68848,1.23047 0.35156,0.55664 0.68847,0.92285 0.35157,0.36621 0.61524,0.36621 0.46875,-1.04004 0.77637,-2.12403 0.30761,-1.098628 0.70312,-2.285152 0.39551,-1.201172 0.98145,-2.519531 0.60058,-1.333008 1.64062,-2.841797 0.10254,-0.146484 0.27832,-0.322266 0.19043,-0.190429 0.41016,-0.336914 0.23437,-0.146484 0.46875,-0.249023 0.24902,-0.102539 0.46875,-0.102539 0.29297,0 0.4248,0.27832 0.14649,0.263672 0.14649,0.600586 0,0.410156 -0.16114,0.644531 z"
         style="font-style:normal;font-variant:normal;font-weight:normal;font-stretch:normal;font-size:30px;font-family:'Segoe Script';-inkscape-font-specification:'Segoe Script';fill:#74c7a8;fill-opacity:1;stroke:none;stroke-width:0.40000001;stroke-miterlimit:4;stroke-dasharray:none;stroke-opacity:1"
         id="path4200" />
      <path
         d="m 141.68655,95.543762 q 0,0.527344 -0.38086,0.952149 -0.13184,0.146484 -0.41016,0.395507 -0.27832,0.234375 -0.49805,0.454102 l -1.34765,1.347656 q -0.38086,0.38086 -0.71778,0.688477 -0.32226,0.292969 -0.57128,0.512695 -0.42481,0.351562 -1.0254,0.849612 -0.58593,0.4834 -1.3623,1.12793 -1.52344,1.25976 -2.8125,2.06543 -1.28906,0.79101 -2.76855,1.27441 -1.46485,0.46875 -3.10547,0.46875 -1.01075,0.0293 -1.81641,-0.35156 -0.79102,-0.38086 -1.34766,-1.02539 -0.54199,-0.65918 -0.83496,-1.53809 -0.27832,-0.8789 -0.26367,-1.86035 0,-1.948242 0.82031,-3.896484 0.83496,-1.948242 2.21192,-3.837891 0.74707,-0.996093 1.80176,-1.904297 1.04003,-0.908203 1.88964,-0.908203 0.45411,0 1.04004,0.761719 0.29297,0.380859 0.55664,0.820313 0.26368,0.424804 0.4834,0.908203 0.43946,0.952148 0.43946,1.376953 0,0.424805 -0.26368,1.098633 -0.26367,0.673828 -0.62988,0.673828 -0.52734,0 -0.87891,-0.717774 -0.17578,-0.366211 -0.26367,-0.615234 -0.0732,-0.263672 -0.17578,-0.556641 -0.33691,-0.878906 -0.57129,-1.259765 -0.96679,0.175781 -1.61133,0.952148 -0.30761,0.38086 -0.64453,0.922852 -0.32226,0.527343 -0.68847,1.201172 -0.29297,0.527343 -0.542,1.186523 -0.24902,0.65918 -0.4248,1.362305 -0.17578,0.688476 -0.27832,1.391601 -0.10254,0.688479 -0.10254,1.289059 0,0.84961 0.73242,1.65528 0.74707,0.77636 1.61133,0.77636 1.875,0 3.55957,-0.65918 1.68457,-0.65917 3.2373,-1.75781 1.53809,-1.06933 3.12012,-2.504881 0.79102,-0.717773 1.49414,-1.347656 0.71778,-0.644531 1.36231,-1.230469 1.06933,-0.9375 1.77246,-0.9375 0.20508,0 0.20508,0.395508 z"
         style="font-style:normal;font-variant:normal;font-weight:normal;font-stretch:normal;font-size:30px;font-family:'Segoe Script';-inkscape-font-specification:'Segoe Script';fill:#74c7a8;fill-opacity:1;stroke:none;stroke-width:0.40000001;stroke-miterlimit:4;stroke-dasharray:none;stroke-opacity:1"
         id="path4202" />
      <path
         d="m 160.86135,95.646301 q 0,0.175782 -0.0439,0.424805 -0.0439,0.234375 -0.13184,0.483398 -0.0732,0.249024 -0.17578,0.483399 -0.0879,0.219726 -0.19043,0.351562 -0.0879,0.117188 -0.26367,0.322266 -0.16114,0.19043 -0.36621,0.424805 -0.20508,0.234375 -0.45411,0.498047 -0.23437,0.249023 -0.49804,0.483398 -0.90821,0.834961 -1.78711,1.625979 -0.86426,0.77636 -1.78711,1.37695 -0.92285,0.60059 -1.93359,0.9668 -0.9961,0.35156 -2.16797,0.33691 -0.542,0 -1.09864,-0.19043 -0.54199,-0.20508 -1.02539,-0.57129 -0.4834,-0.36621 -0.83496,-0.8789 -0.35156,-0.5127 -0.49804,-1.12793 -0.42481,0.43945 -0.89356,0.92285 -0.46875,0.46875 -0.98144,0.95215 -0.49805,0.4834 -1.04004,0.9375 -0.542,0.4541 -1.11329,0.83496 -0.32226,0.20508 -0.77636,0.43945 -0.43946,0.23438 -0.9375,0.43945 -0.4834,0.19043 -0.98145,0.32227 -0.4834,0.11719 -0.8789,0.11719 -0.60059,0 -1.04004,-0.36621 -0.42481,-0.38086 -0.71778,-0.92286 -0.27832,-0.54199 -0.4248,-1.15722 -0.13184,-0.61524 -0.13184,-1.09863 0,-0.9668 0.27832,-1.97754 0.27832,-1.010746 0.71778,-1.962894 0.4541,-0.966797 0.99609,-1.831055 0.55664,-0.864258 1.08398,-1.538086 0.55665,-0.703125 1.31836,-1.391602 0.76172,-0.703125 1.58204,-1.245117 0.82031,-0.55664 1.61132,-0.893554 0.79102,-0.336914 1.40625,-0.336914 0.30762,0 0.64453,0 0.35157,0 0.68848,0.04394 0.33692,0.0293 0.65918,0.117187 0.32227,0.07324 0.58594,0.234375 0.13183,0.08789 0.30762,0.336914 0.17578,0.249024 0.32226,0.556641 0.16113,0.307617 0.26367,0.615234 0.10254,0.307618 0.10254,0.483399 0,0.483398 -0.21972,1.289062 -0.23438,1.010743 -0.43946,1.845703 -0.19043,0.820313 -0.19043,1.699219 0,0.498047 0.16114,1.025391 0.16113,0.512695 0.4541,0.937502 0.30761,0.4248 0.73242,0.70312 0.43945,0.26367 0.98144,0.26367 0.89356,0 1.83106,-0.36621 0.9375,-0.38086 1.88965,-1.025387 0.96679,-0.65918 1.91894,-1.508789 0.95215,-0.864258 1.875,-1.831055 0.0733,-0.08789 0.24903,-0.292968 0.19043,-0.219727 0.38086,-0.424805 0.20507,-0.219727 0.3955,-0.380859 0.19043,-0.175782 0.27832,-0.175782 0.30762,0 0.30762,0.600586 z m -13.03711,-1.21582 q 0,-0.249023 -0.0293,-0.615234 -0.0293,-0.366211 -0.19042,-0.600586 -0.16114,-0.234375 -0.39551,-0.219727 -0.23438,0 -0.46875,0 -0.5127,0 -0.9961,0.161133 -0.46875,0.161133 -0.92285,0.454101 -0.4541,0.278321 -0.8789,0.65918 -0.41016,0.366211 -0.80567,0.776367 -0.33691,0.336914 -0.71777,0.834961 -0.36621,0.498047 -0.73242,1.098633 -0.35157,0.585938 -0.68848,1.245117 -0.33691,0.644532 -0.58594,1.289063 -0.24902,0.629881 -0.39551,1.230471 -0.14648,0.58594 -0.14648,1.06933 0,0.14649 0.0293,0.39551 0.0439,0.23438 0.11718,0.46875 0.0879,0.21973 0.21973,0.38086 0.14649,0.16113 0.35156,0.16113 0.67383,0 1.68457,-0.4248 1.37696,-0.58594 2.49024,-1.59668 1.12793,-1.02539 1.91894,-2.358399 1.14258,-2.06543 1.14258,-4.40918 z"
         style="font-style:normal;font-variant:normal;font-weight:normal;font-stretch:normal;font-size:30px;font-family:'Segoe Script';-inkscape-font-specification:'Segoe Script';fill:#74c7a8;fill-opacity:1;stroke:none;stroke-width:0.40000001;stroke-miterlimit:4;stroke-dasharray:none;stroke-opacity:1"
         id="path4204" />
      <path
         d="m 172.33108,99.132629 q 0,0.131836 -0.16114,0.38086 -0.14648,0.249023 -0.43945,0.571291 -0.27832,0.30762 -0.67383,0.67383 -0.3955,0.35156 -0.89355,0.70312 -1.21582,0.87891 -2.65137,1.78711 -1.43555,0.9082 -2.87109,1.78711 -1.15723,0.70312 -2.19727,1.27441 -1.04004,0.58594 -1.83105,0.98145 -0.49805,0.24902 -0.87891,0.4248 -0.36621,0.17579 -0.67383,0.29297 -0.30761,0.11719 -0.58593,0.16114 -0.26368,0.0586 -0.52735,0.0586 -0.13183,0 -0.32226,-0.0879 -0.19043,-0.0732 -0.35157,-0.21973 -0.16113,-0.13183 -0.27832,-0.30762 -0.11718,-0.17578 -0.11718,-0.36621 0,-0.9375 0.73242,-1.49414 0.17578,-0.13183 0.33691,-0.23437 0.16113,-0.10254 0.36621,-0.19043 0.20508,-0.10254 0.4834,-0.19043 0.29297,-0.0879 0.71777,-0.17578 0.79102,-0.16114 1.50879,-0.41016 0.73243,-0.24902 1.09864,-0.52734 0.36621,-0.27832 0.49804,-0.70313 0.14649,-0.4248 0.14649,-0.9082 0,-0.4834 -1.01074,-1.96289 -0.49805,-0.747072 -0.89356,-1.303712 -0.38086,-0.556641 -0.65918,-1.054688 -0.27832,-0.512695 -0.4248,-1.113281 -0.13184,-0.615234 -0.13184,-1.171875 0,-1.010742 0.36621,-2.06543 0.17578,-0.615234 0.54199,-1.21582 0.38086,-0.615234 0.83496,-1.098633 0.45411,-0.483398 0.90821,-0.791015 0.46875,-0.307618 0.82031,-0.307618 l 0.0439,0 q 1.28906,0 1.28906,1.523438 0,0.585937 -0.42481,1.142578 -0.4248,0.541992 -1.17187,1.157227 -0.36621,0.307617 -0.67383,0.541992 -0.30762,0.234375 -0.46875,0.395508 0,0.380859 0.11719,0.893554 0.11719,0.498047 0.35156,1.010743 0.24902,0.498046 0.64453,1.040039 0.39551,0.541992 0.77637,1.054687 0.23437,0.322266 0.4834,0.717774 0.26367,0.380862 0.4834,0.820312 0.21972,0.4248 0.36621,0.86426 0.14648,0.43945 0.17578,0.84961 0,0.0293 0.0586,0.0879 0.0586,0.0439 0.13184,0.0439 0.11719,0 0.4541,-0.17578 0.35156,-0.19043 0.83496,-0.46875 0.4834,-0.29297 1.05469,-0.64453 0.57129,-0.36621 1.12793,-0.71777 0.55664,-0.36621 1.05468,-0.688479 0.5127,-0.322266 0.86426,-0.541993 0.46875,-0.292968 0.70313,-0.512695 0.24902,-0.234375 0.4541,-0.234375 0.24902,0 0.36621,0.19043 0.11719,0.175781 0.11719,0.454101 z"
         style="font-style:normal;font-variant:normal;font-weight:normal;font-stretch:normal;font-size:30px;font-family:'Segoe Script';-inkscape-font-specification:'Segoe Script';fill:#74c7a8;fill-opacity:1;stroke:none;stroke-width:0.40000001;stroke-miterlimit:4;stroke-dasharray:none;stroke-opacity:1"
         id="path4206" />
      <path
         d="m 189.001,95.514465 q 0,0.219727 -0.32227,0.776368 -0.76171,1.098632 -1.71386,2.197265 -0.9375,1.098633 -2.00684,2.094722 -1.05469,0.98145 -2.21191,1.84571 -1.14258,0.84961 -2.31446,1.47949 -1.17187,0.61523 -2.34375,0.95215 -1.15722,0.33691 -2.24121,0.32226 -2.34375,0 -3.64746,-1.3623 -1.28906,-1.36231 -1.28906,-4.116212 0,-2.299804 0.70312,-4.467773 0.71778,-2.167969 2.43164,-4.174805 0.32227,-0.351562 0.71778,-0.673828 0.41015,-0.322265 0.84961,-0.571289 0.4541,-0.249023 0.92285,-0.395508 0.4834,-0.146484 0.9668,-0.175781 0.11718,0 0.32226,0.0293 0.20508,0.0293 0.43945,0.102539 0.23438,0.07324 0.45411,0.19043 0.21972,0.102539 0.35156,0.263672 0.41016,0.46875 0.64453,0.966796 0.24902,0.498047 0.27832,1.098633 0.0293,0.673828 -0.16113,1.333008 -0.17578,0.644531 -0.61524,1.333008 -0.4248,0.673828 -1.12793,1.40625 -0.70312,0.717773 -1.69922,1.552734 -0.62988,0.527344 -1.40625,1.171875 -0.76171,0.629883 -1.8457,1.333004 0,1.4209 0.84961,2.16797 0.86426,0.73242 2.3584,0.73242 0.83496,0 1.68457,-0.21972 0.84961,-0.21973 1.66992,-0.57129 0.82031,-0.36621 1.58203,-0.82031 0.77637,-0.46875 1.4502,-0.95215 1.24512,-0.908205 2.25586,-1.80176 1.01074,-0.908203 2.00683,-1.904297 l 0.79102,-0.791015 q 0.71777,-0.629883 1.04004,-0.629883 0.17578,0 0.17578,0.27832 z m -11.19141,-2.915039 q -0.0146,-0.219726 -0.0732,-0.424804 -0.0439,-0.219727 -0.14648,-0.38086 -0.10254,-0.161133 -0.23438,-0.249023 -0.13183,-0.102539 -0.30762,-0.102539 -0.77636,0.04394 -1.55273,0.952148 -0.77637,0.893555 -1.46484,2.373047 -0.16114,0.322266 -0.29297,0.732422 -0.11719,0.395508 -0.23438,0.820312 -0.10254,0.410157 -0.19043,0.820313 -0.0732,0.410156 -0.13183,0.732422 0.76172,-0.571289 1.40625,-1.054688 0.64453,-0.483398 1.20117,-0.996093 0.35156,-0.322266 0.71777,-0.688477 0.36621,-0.380859 0.65918,-0.791016 0.30762,-0.410156 0.4834,-0.849609 0.17578,-0.439453 0.16113,-0.893555 z"
         style="font-style:normal;font-variant:normal;font-weight:normal;font-stretch:normal;font-size:30px;font-family:'Segoe Script';-inkscape-font-specification:'Segoe Script';fill:#74c7a8;fill-opacity:1;stroke:none;stroke-width:0.40000001;stroke-miterlimit:4;stroke-dasharray:none;stroke-opacity:1"
         id="path4208" />
      <path
         d="m 195.21194,102.44318 q 0,0.74707 -0.26367,1.46484 -0.26368,0.70313 -0.71778,1.33301 -0.43945,0.62988 -1.02539,1.15722 -0.57129,0.542 -1.20117,0.92286 -0.61524,0.3955 -1.24512,0.60058 -0.62988,0.21973 -1.15722,0.21973 -0.73243,0 -0.9668,-0.32227 -0.23438,-0.32226 -0.23438,-0.9082 0,-0.54199 0.20508,-0.83496 0.20508,-0.27832 0.58594,-0.4834 0.0439,-0.0147 0.16113,-0.0293 0.11719,-0.0293 0.24903,-0.0293 0.14648,-0.0147 0.27832,-0.0147 0.14648,-0.0147 0.23437,-0.0147 0.10254,0 0.29297,-0.0439 0.19043,-0.0439 0.41016,-0.11718 0.21972,-0.0879 0.4541,-0.20508 0.23437,-0.13184 0.43945,-0.29297 0.58594,-0.46875 0.82031,-1.04004 0.24903,-0.58594 0.24903,-1.04004 0,-0.57129 -0.36621,-1.06933 -0.36622,-0.49805 -0.92286,-0.9668 -0.55664,-0.4834 -1.20117,-0.952149 -0.64453,-0.483399 -1.20117,-1.010743 -0.55664,-0.541992 -0.92285,-1.142578 -0.36621,-0.600586 -0.36621,-1.333007 0,-0.366211 0.0879,-0.776368 0.10254,-0.410156 0.24902,-0.805664 0.16113,-0.395508 0.35156,-0.761718 0.20508,-0.38086 0.42481,-0.688477 0.35156,-0.498047 0.76172,-0.981445 0.4248,-0.483399 0.84961,-0.84961 0.4248,-0.380859 0.83496,-0.600586 0.41015,-0.234375 0.76172,-0.234375 0.99609,0 0.99609,1.171875 0,0.410157 -0.33691,0.952149 -0.32227,0.541992 -0.77637,0.996094 -0.70313,0.673828 -1.23047,1.157226 -0.52734,0.46875 -0.98144,0.966797 0.33691,0.498047 0.73242,0.908203 0.3955,0.410156 0.82031,0.791016 0.43945,0.380859 0.87891,0.74707 0.4541,0.366211 0.89355,0.761719 0.41016,0.380859 0.77637,0.776367 0.38086,0.380864 0.67383,0.805664 0.29296,0.41016 0.46875,0.86426 0.17578,0.4541 0.17578,0.95215 z"
         style="font-style:normal;font-variant:normal;font-weight:normal;font-stretch:normal;font-size:30px;font-family:'Segoe Script';-inkscape-font-specification:'Segoe Script';fill:#74c7a8;fill-opacity:1;stroke:none;stroke-width:0.40000001;stroke-miterlimit:4;stroke-dasharray:none;stroke-opacity:1"
         id="path4210" />
    </g>
    <text
       xml:space="preserve"
       style="font-style:normal;font-weight:normal;font-size:90px;line-height:125%;font-family:Arial;text-align:center;letter-spacing:0px;word-spacing:0px;text-anchor:middle;fill:#808284;fill-opacity:1;stroke:none;stroke-width:1px;stroke-linecap:butt;stroke-linejoin:miter;stroke-opacity:1;-inkscape-font-specification:Arial;font-stretch:normal;font-variant:normal;"
       x="128.24675"
       y="69.691559"
       id="text4212"
       sodipodi:linespacing="125%"><tspan
         sodipodi:role="line"
         id="tspan4214"
         x="128.24675"
         y="69.691559"
         style="font-style:normal;font-variant:normal;font-weight:normal;font-stretch:normal;font-size:90px;font-family:Arial;-inkscape-font-specification:Arial;fill:#808284;fill-opacity:1;">clarity</tspan></text>
  </g>
</svg>
